<svg id="bowie2" xmlns="http://www.w3.org/2000/svg" xmlns:xlink="http://www.w3.org/1999/xlink" viewBox="0 0 706.21 876.84"><defs><style>.cls-1{fill:url(#linear-gradient);}.cls-2{fill:url(#linear-gradient-2);}.cls-3{fill:url(#linear-gradient-3);}.cls-4{fill:#f2ddd8;}.cls-5{fill:url(#linear-gradient-4);}.cls-6{fill:url(#linear-gradient-5);}.cls-7{fill:url(#linear-gradient-6);}.cls-8{fill:url(#linear-gradient-7);}.cls-9{fill:url(#linear-gradient-8);}.cls-10{fill:#f4a6a6;}.cls-11{fill:url(#linear-gradient-9);}.cls-12{fill:url(#linear-gradient-10);}.cls-13{fill:#3b9ab7;}.cls-14{fill:#d83939;}.cls-15{fill:url(#linear-gradient-11);}.cls-16{fill:url(#linear-gradient-12);}.cls-17{fill:#b80005;}.cls-18{fill:#d35e5e;}.cls-19{fill:#9b2d3d;}.cls-20{fill:#aa0021;}.cls-21{fill:#990013;}.cls-22{fill:#bf404f;}.cls-23{fill:#930027;}.cls-24{fill:#040d4c;}.cls-25{fill:#020638;}.cls-26{fill:#b70000;}.cls-27{fill:url(#linear-gradient-13);}.cls-28{fill:url(#linear-gradient-19);}.cls-29{fill:url(#linear-gradient-20);}.cls-30{fill:#fce4e3;}.cls-31{fill:none;stroke:#040d4c;stroke-miterlimit:10;stroke-width:4px;}.cls-32{fill:url(#linear-gradient-21);}.cls-33{fill:url(#linear-gradient-23);}</style><linearGradient id="linear-gradient" x1="357.29" y1="884.09" x2="349.25" y2="290.48" gradientUnits="userSpaceOnUse"><stop offset="0.05" stop-color="#ffe9e1"/><stop offset="0.38" stop-color="#fad6d1"/><stop offset="1" stop-color="#eda9a9"/></linearGradient><linearGradient id="linear-gradient-2" x1="364.94" y1="701.23" x2="61.89" y2="466" gradientUnits="userSpaceOnUse"><stop offset="0.05" stop-color="#ffe9e1" stop-opacity="0"/><stop offset="0.13" stop-color="#fee4dd" stop-opacity="0.08"/><stop offset="0.3" stop-color="#fad7d1" stop-opacity="0.28"/><stop offset="0.54" stop-color="#f4c2bf" stop-opacity="0.61"/><stop offset="0.79" stop-color="#eda9a9"/></linearGradient><linearGradient id="linear-gradient-3" x1="337.32" y1="690.94" x2="678.61" y2="458.44" xlink:href="#linear-gradient-2"/><linearGradient id="linear-gradient-4" x1="344.7" y1="524.9" x2="347.88" y2="193.23" gradientUnits="userSpaceOnUse"><stop offset="0.5" stop-color="#ffe1e1"/><stop offset="0.65" stop-color="#fad3d3"/><stop offset="0.93" stop-color="#efaeae"/><stop offset="0.97" stop-color="#eda9a9"/></linearGradient><linearGradient id="linear-gradient-5" x1="410.19" y1="471.31" x2="464.53" y2="363.98" gradientUnits="userSpaceOnUse"><stop offset="0" stop-color="#f7d2d2"/><stop offset="0.14" stop-color="#f6cdcd"/><stop offset="0.3" stop-color="#f3bebe"/><stop offset="0.49" stop-color="#eea5a5"/><stop offset="0.68" stop-color="#e78282"/><stop offset="0.88" stop-color="#de5656"/><stop offset="1" stop-color="#d83939"/></linearGradient><linearGradient id="linear-gradient-6" x1="405.83" y1="317.01" x2="407.7" y2="247.16" gradientUnits="userSpaceOnUse"><stop offset="0" stop-color="#f7d2d2"/><stop offset="0.12" stop-color="#f1b3b3"/><stop offset="0.35" stop-color="#e67f7f"/><stop offset="0.55" stop-color="#de5959"/><stop offset="0.71" stop-color="#da4242"/><stop offset="0.81" stop-color="#d83939"/></linearGradient><linearGradient id="linear-gradient-7" x1="543.37" y1="469.31" x2="597.71" y2="361.98" gradientTransform="matrix(-1, 0, 0, 1, 822.81, 0)" xlink:href="#linear-gradient-5"/><linearGradient id="linear-gradient-8" x1="282.7" y1="321.32" x2="285.34" y2="225.06" gradientUnits="userSpaceOnUse"><stop offset="0" stop-color="#f7d2d2"/><stop offset="0.06" stop-color="#f5caca"/><stop offset="0.16" stop-color="#f1b4b4"/><stop offset="0.28" stop-color="#ea9090"/><stop offset="0.41" stop-color="#df5e5e"/><stop offset="0.5" stop-color="#d83939"/></linearGradient><linearGradient id="linear-gradient-9" x1="524.41" y1="242.74" x2="444.57" y2="238.36" gradientUnits="userSpaceOnUse"><stop offset="0.16" stop-color="#f7d2d2"/><stop offset="0.27" stop-color="#f6cccc"/><stop offset="0.41" stop-color="#f2bcbc"/><stop offset="0.57" stop-color="#eda0a0"/><stop offset="0.75" stop-color="#e57a7a"/><stop offset="0.94" stop-color="#db4a4a"/><stop offset="1" stop-color="#d83939"/></linearGradient><linearGradient id="linear-gradient-10" x1="201.6" y1="235.93" x2="249.72" y2="216.65" gradientUnits="userSpaceOnUse"><stop offset="0" stop-color="#f7d2d2"/><stop offset="0.1" stop-color="#f3bfbf"/><stop offset="0.4" stop-color="#e78585"/><stop offset="0.67" stop-color="#df5c5c"/><stop offset="0.88" stop-color="#da4242"/><stop offset="1" stop-color="#d83939"/></linearGradient><linearGradient id="linear-gradient-11" x1="254.88" y1="-40.56" x2="369.57" y2="255.31" gradientUnits="userSpaceOnUse"><stop offset="0.09" stop-color="#e0422d"/><stop offset="0.32" stop-color="#de3e2b"/><stop offset="0.54" stop-color="#d93324"/><stop offset="0.75" stop-color="#d02019"/><stop offset="0.96" stop-color="#c40609"/><stop offset="1" stop-color="#c10005"/></linearGradient><linearGradient id="linear-gradient-12" x1="220.5" y1="497.57" x2="261.93" y2="345.55" gradientUnits="userSpaceOnUse"><stop offset="0.5" stop-color="#e0422d"/><stop offset="0.63" stop-color="#d73424"/><stop offset="0.88" stop-color="#c10f0e"/><stop offset="0.97" stop-color="#b80005"/></linearGradient><linearGradient id="linear-gradient-13" x1="344.67" y1="524.9" x2="347.85" y2="193.1" xlink:href="#linear-gradient-4"/><linearGradient id="linear-gradient-19" x1="254.88" y1="-40.56" x2="369.57" y2="255.3" xlink:href="#linear-gradient-11"/><linearGradient id="linear-gradient-20" x1="236.02" y1="193.56" x2="236.02" y2="193.56" xlink:href="#linear-gradient-10"/><linearGradient id="linear-gradient-21" x1="482.75" y1="494.29" x2="417.79" y2="301.51" gradientUnits="userSpaceOnUse"><stop offset="0.19" stop-color="#e0422d"/><stop offset="0.39" stop-color="#de3e2b"/><stop offset="0.58" stop-color="#d73324"/><stop offset="0.76" stop-color="#cb1f18"/><stop offset="0.95" stop-color="#ba0407"/><stop offset="0.97" stop-color="#b80005"/></linearGradient><linearGradient id="linear-gradient-23" x1="482.75" y1="494.3" x2="417.24" y2="299.89" xlink:href="#linear-gradient-21"/></defs><path class="cls-1" d="M365.3,875.42c211.6-7.88,337-153.3,340.91-157.89-26.32-47.68-50.53-47.64-100.29-59.83C519,633.47,465.81,563.92,454.52,543.34c-6.29-22.57-4.82-102.18-4.82-102.18l-193.6,12s2.71,58.79,1.45,97.61c-11.27,35.81-110.19,95.08-128.24,104.68C28.25,660,9.77,729,9.77,729s-2.3,3.14-5.65,8C30.34,761.23,171.7,882.62,365.3,875.42Z"/><path class="cls-2" d="M355.89,875.66h.84q4.41-.07,8.85-.25c12.6-.47,24.87-1.45,36.81-2.83,62.62-8,193.61-38.34,298.16-154.1l-.24-.05c-4.82-14.4-26.46-68.89-114.88-72.91-18.06-9.59-124.86-64.27-136.12-100.09-1.26-38.82-2-97-2-97L264.48,437.16s8.47,79.61,2.18,102.18c-11.29,20.58-59.46,92.86-146.35,117.08C72.44,668.14,43.57,666.05,18,708.3c-2,3.28-9.68,23.12-12.68,29.12C5.31,737.42,155.37,878.76,355.89,875.66Z"/><path class="cls-3" d="M371.3,874.59c208.25-7.75,327.61-147.74,334.9-156.52-1.59-4.72-21.39-57.26-117.89-61.65-18.06-9.6-130.74-64.18-142-100-1.26-38.82-2-97-2-97L261.48,448.16s8.47,79.61,2.18,102.18c-11.29,20.58-59.46,92.86-146.35,117.08-49.89,12.22-77.61,3-104,51A69.35,69.35,0,0,0,7.1,733.33C22.61,748.2,168.21,882.14,371.3,874.59Z"/><path class="cls-4" d="M228.16,349.78"/><path class="cls-5" d="M207.13,285.19c-8.44-15.49-25.52-40.86-30-2.49a3.12,3.12,0,0,0,.18,1.48l8.72,23a3.29,3.29,0,0,0,.17.39l7.92,14.66a3.18,3.18,0,0,1,.37,1.31c.31,5.37,3.22,40.42,26,38.28,1-.09,1.84-6.61,2.38-7.42,9.15-13.84.38-9,.38-9l10.76,17.79a2.9,2.9,0,0,1,.23.76,245.44,245.44,0,0,1,3,30.45c.21,5.91.2,11.56,0,16.9a50.27,50.27,0,0,0,8.7,30.17c1.41,2.06,2.88,4.13,4.39,6.23,8.51,11.81,20.11,26.11,32.51,36.21a3.68,3.68,0,0,1,.57.61c14.9,21,24.19,33.16,35,33.52,9.87.32,24.43-.89,27-1.11a3.16,3.16,0,0,1,.75,0c3.54.57,31.67,4.77,39.63-5.06s57.58-67.16,63.26-73.72a3.06,3.06,0,0,0,.7-1.42c1-4.81,5.67-30.09,3.23-46.34-1.61-10.78,1.7-23.73,4.62-32.4a3.14,3.14,0,0,1,6,.31h0a3.16,3.16,0,0,0,1.17,1.81c3.12,2.32,13.7,7,28.15-21.09l17.28-33.57a1.3,1.3,0,0,0,.08-.17c.88-2,16.36-38.07-3.42-41.83a3.1,3.1,0,0,0-1.73.19c-9.54,4-12.46,8-13.24,9.49a3,3,0,0,0-.32,1l-2.36,16.72S486.91,311,476.8,323.05a3.14,3.14,0,0,1-5.48-2.63c4.12-21.68,7.59-48.42,3.1-66.45-3.82-15.35-.12-26.78,2-31.58a3.12,3.12,0,0,0-1.3-3.95c-5.39-3.15-17.79-10.74-22.16-16.54-4.67-6.17-17.62-16.69-22-20.18a3.13,3.13,0,0,0-3.14-.45c-8.4,3.47-46.73,17.74-75.66,2.26a3.2,3.2,0,0,0-2.27-.28c-12.69,3.09-35.19,3.15-46.88-3.64a3.27,3.27,0,0,0-2-.44c-8.94,1.09-32.61.83-37.1.76a3.27,3.27,0,0,0-1.41.32l-15.66,7.64-.16.08L222,198.25a3,3,0,0,0-1.21.89c-2.71,3.29-13.83,20.85-7.62,81.74a3.27,3.27,0,0,1,0,.54c-.06.89-.12,1.72-.18,2.5A3.13,3.13,0,0,1,207.13,285.19Z"/><path class="cls-6" d="M460.37,349.32s-9.85,36.93-8,61-7.1,34.09-7.1,34.09l-37,41c7.65-8.76,22.41-50,26.2-103,2.8-13,13.79-23.82,13.79-23.82l13-15.6Z"/><path class="cls-7" d="M363.34,310.68s30.38-62.85,86-24.26c-2.42,10.85-18.22,46.78-59,23-27.78,3.94-26.5,1.77-26.5,1.77"/><path class="cls-8" d="M229.26,347.32s9.85,36.93,8,61,7.1,34.09,7.1,34.09l37,41c-7.65-8.76-22.41-50-26.2-103-2.8-13-13.79-23.82-13.79-23.82l-13-15.6Z"/><path class="cls-9" d="M324.29,309.8s-26.3-61.89-81.88-24.23c2.41,10.59,12.86,44.09,53.63,20.87l27.78,3.85"/><path class="cls-10" d="M307.81,440.92s-1.1,19,45.45,17c32.45,1,33.83-18.86,33.83-18.86l-13-.58s-16.28,9.57-26.28,7-33-5.56-33-5.56Z"/><path class="cls-10" d="M307.81,440.92s32.35-.34,39.42-2.92c11.08,1.42,39.86,1.06,39.86,1.06l-21.95-8s-9.79-2.58-18.81,1.91C341.31,431.42,327.31,428.42,307.81,440.92Z"/><path class="cls-11" d="M451.46,200.4s-4.15,22.63-4.65,32.82-2.11,32.13-3.5,35.2,21.26-16,33.13,8,2.69-76,2.69-76Z"/><path class="cls-12" d="M236,193.56c.29-.14-.44,22.78,5.42,39.32-.13,12.54-3.71,25.63,1.58,32.59-7.71-2.05-21.17-7.62-28.44,6.66s-17.27-43.71-17.27-43.71l19-44.5s20.64-8.49,20.32-4-1.75,18.59-1.75,18.59"/><path class="cls-13" d="M306.31,177.42l-73,163s-11.17,7-13-1,62.57-157.07,62.57-157.07l17.31-2.6"/><path class="cls-14" d="M300.19,179.75s-72.28,159.18-73.39,160.5c-4.59,5.43,3.32,8.82,6.29,5.77l58.25-14.73s-37,78.13-42,108.13c0,0,148-201,148.11-200.73l-52.19,43.83,54.58-106.68-34.15-23.45-59.64,11Z"/><path class="cls-15" d="M257.81,14.92c-.58-.41,11.34,23.78.42,37.64-7.92-3.14-6.39-15.48-6.39-15.48s-26.05,19.56-31.79,47c-.74,4.39-1.08,12.19-1.08,12.19S213.6,92.5,216,78c-5.64,10.46-12.64,29.41-12.14,52.93-4.5.53-10.33-19-10.33-19l-2,14.19s1.22,23.79,7,34.07l-6.21-7.71,2.23,12.52s5,38.07,2.05,53c-1,5.18-2,10.38-2.6,15.62-1.6,13.78-2.69,27.47-.51,31.12,2.83,4.73,9.83,30.73,9.83,30.73l11,21s-2-25-1.93-70.66c0-11.53,2.06-41.15,9-47.25,6.94-1.09,25.36-10.58,25.36-10.58l21.92-5s16.43.14,30.54-3.19c6.12,2.67,33.18,12.69,49.15,2.18,10,3.49,48.3,20.5,79.13-2,15.84,12.5,37.84,32.5,47.34,39-.5,7.5-1.37,23.31-1.37,23.31s9.4,62.79-3.87,87c11.74-10.8,23.64-33.81,23.19-60.31,9.1-5,13.54-12.2,12.54-19.85-.87-6.71-3.88-45.38,1.06-65.85a54.48,54.48,0,0,0,0-26c-4.37-17.5-12.62-38-12.62-38s-8.16-11.79-12.3-10.28c-.13-9.49.36-29.56-15.39-42l10.76-4s-13-18.42-38.26-11.46c-8.24-5,7.7-15.44,7.73-15.74s-19.61-6.6-31.79,3.05l1.82,1.65s-2.38-3-3.69-13.48c3.69-12.52,3.44-14.85,3.44-14.85L396.42,29.26s-7.81,1.75-8-8C378.31,27.42,369.71,27,369.71,27L380.28,9.51s-26,24.91-40.47,24.41l5.26-15.54L315.36,38.77s-3.82-13.43-8.44-20.39A67.53,67.53,0,0,0,295.81,5.92s8,18.81,6.27,25.65-8.71,1.31-11.74-8.42l-3-9.73L287.21,27s-5,4-6.46-7.8l-7.94,21.65S271.31,24.42,257.81,14.92Z"/><path class="cls-16" d="M217.31,362.42s3.85-1.64,8-15,6.72,68.76,9,78c2.24,9.08,16.5,25.5,16.5,25.5l4.5,69.5a52.21,52.21,0,0,1-13.12-12.69c-12.67-17.64-9.95-37.87-9-43.39,0,0-18.26,15.7-28.56,17.89,4.7-7.81,24.5-29.35,24.1-60.58-10.4,14.77-24.1,19.2-24.1,19.2s17.59-42.29,12.77-72c-.1-.62-1.09-7.76-.67-7.84C216.85,361,217.11,361.77,217.31,362.42Z"/><path class="cls-17" d="M280.3,110.07a95.6,95.6,0,0,0,14.77,36.18,97.3,97.3,0,0,0,27.81,27.29,109,109,0,0,0,22.79,10.85c1.82.65,2.6-2.25.8-2.9a106.57,106.57,0,0,1-20-9.25,92.6,92.6,0,0,1-15.17-11.55,94.59,94.59,0,0,1-21.82-30.8,92.92,92.92,0,0,1-6.27-20.61c-.34-1.9-3.24-1.1-2.89.79Z"/><path class="cls-18" d="M248,550.24c-.31,18.1-1.1,36.2-2.52,54.24q-.57,7.34-1.3,14.65c-.19,1.92,2.81,1.9,3,0,1.75-17.64,2.83-35.35,3.42-53.07q.27-7.9.4-15.82c0-1.93-3-1.93-3,0Z"/><path class="cls-19" d="M440.31,439.92c-1.16,18.25-1.22,36.58-.78,54.86.47,19.38,1.54,38.75,3.35,58.05.92,9.85,2.05,19.69,3.48,29.49.28,1.9,3.17,1.09,2.89-.8-2.63-18-4.22-36.09-5.33-54.21-1.19-19.35-1.77-38.74-1.6-58.12.09-9.77.37-19.53,1-29.27.12-1.93-2.88-1.92-3,0Z"/><path class="cls-18" d="M312,530.44l5.35,51.08c.2,1.9,3.2,1.92,3,0L315,530.44c-.2-1.9-3.2-1.92-3,0Z"/><path class="cls-20" d="M247.75,549.48c-11,18.36-26,33.84-42.76,47s-35.38,24-54.1,34.32c-10.42,5.72-20.95,11.27-31.39,17-1.7.92-.19,3.51,1.51,2.59,18.9-10.28,38.05-20.12,56.4-31.35s35.78-23.74,50.69-39.14A159.12,159.12,0,0,0,250.34,551a1.5,1.5,0,0,0-2.59-1.51Z"/><path class="cls-20" d="M443.08,539.24c7,20.21,21.21,36.75,37.27,50.45,18.37,15.67,38.74,29,59.06,41.95A301.59,301.59,0,0,0,575.7,651.9c1.75.8,3.27-1.78,1.52-2.59a270.67,270.67,0,0,1-31.93-17.48c-10.24-6.5-20.44-13.08-30.45-20-18.35-12.59-36.92-26-51.29-43.17A97,97,0,0,1,446,538.44c-.62-1.81-3.52-1-2.89.8Z"/><path class="cls-18" d="M388.63,699.67c18.84-14.19,43.2-15.51,65.78-17.83a794.5,794.5,0,0,0,82.41-13.37c15.56-3.28,31-6.85,46.51-10.53,1.88-.45,1.08-3.34-.8-2.89-27.5,6.54-55.1,12.76-83,17.53-13.84,2.37-27.75,4.39-41.72,5.9-11.72,1.27-23.52,2.09-35.13,4.25-12.67,2.36-25.19,6.52-35.58,14.35-1.52,1.14,0,3.75,1.51,2.59Z"/><path class="cls-18" d="M321.9,697.7c-.28-11.33-14.15-13.55-22.78-15.56-14.13-3.28-28.41-5.89-42.74-8.13-28.4-4.45-57-7.49-85.42-11.89-8.17-1.26-16.2-3.08-24.27-4.88s-16-3.58-24-5.33c-1.89-.41-2.69,2.48-.8,2.89,7.09,1.54,14.17,3.13,21.25,4.71l10.29,2.28c3.48.77,7,1.66,10.49,2.23,14.1,2.29,28.26,4.21,42.43,6.07,27.77,3.65,55.61,7.13,83,12.95,6.89,1.47,13.94,2.79,20.59,5.17,4.54,1.62,8.82,4.15,9,9.49,0,1.93,3,1.93,3,0Z"/><path class="cls-18" d="M489.09,700.13a292.16,292.16,0,0,1,36.54-6.63c1.89-.22,1.92-3.23,0-3a299,299,0,0,0-37.34,6.74c-1.87.46-1.08,3.36.8,2.89Z"/><path class="cls-18" d="M165.43,683l27.72,3.44c1.91.24,1.89-2.76,0-3L165.43,680c-1.91-.24-1.9,2.76,0,3Z"/><path class="cls-21" d="M419.41,181.26c-8.12,5.13-17.8,7.29-27.28,7.9a103.88,103.88,0,0,1-30.28-2.64,93.23,93.23,0,0,1-15.29-4.9c-1.75-.75-3.28,1.84-1.51,2.59a104.46,104.46,0,0,0,29.52,7.5c10.39,1.14,21.13.92,31.31-1.62a51.28,51.28,0,0,0,15-6.24c1.63-1,.13-3.62-1.51-2.59Z"/><path d="M456.9,339.85a193.15,193.15,0,0,0-8.13,32.39,169.78,169.78,0,0,0-1.85,27c0,5.88.21,11.76.39,17.65.05,1.92,3.05,1.93,3,0-.29-9.72-.65-19.46-.15-29.18a160.66,160.66,0,0,1,4.12-28,195.12,195.12,0,0,1,5.52-19.08c.62-1.83-2.28-2.61-2.9-.79Z"/><path class="cls-18" d="M381,259c12.67-7.61,29.93-8.37,43-1.43A46.6,46.6,0,0,1,437.75,269c1.24,1.48,3.35-.65,2.12-2.12-6.74-8-15.74-14-26.09-16.08a50.06,50.06,0,0,0-24.51,1.41,45,45,0,0,0-9.75,4.25A1.5,1.5,0,0,0,381,259Z"/><path class="cls-19" d="M358.45,286.86A53.81,53.81,0,0,1,381,259c1.65-1,.14-3.6-1.51-2.59a57,57,0,0,0-24,29.63c-.64,1.82,2.25,2.6,2.89.79Z"/><path class="cls-22" d="M326.13,325.92c.08,13.46,1.37,27.11-2.72,40.17-.57,1.85,2.32,2.64,2.9.8,4.16-13.32,2.9-27.24,2.82-41a1.5,1.5,0,0,0-3,0Z"/><path class="cls-23" d="M272.13,255.75c12.21-1.34,24.47,2.56,34.2,9.94A49.2,49.2,0,0,1,318.47,279a51.88,51.88,0,0,1,6.59,18.79,96.08,96.08,0,0,1,1.24,13.86c.1,4.75-.19,9.49-.17,14.24a1.5,1.5,0,0,0,3,0c0-4.35.24-8.69.19-13a105.18,105.18,0,0,0-.91-12.79c-1-7.23-2.73-14.33-6.29-20.75a53.47,53.47,0,0,0-28.75-24,48.26,48.26,0,0,0-21.24-2.57c-1.9.21-1.92,3.21,0,3Z"/><path class="cls-24" d="M377.29,312.09c7.82-5.35,17.34,1.5,25,3.65,8.46,2.37,16.95-.25,24-5.14a59.44,59.44,0,0,0,10.83-9.89c1.26-1.45-.85-3.58-2.12-2.12-5.48,6.29-12.31,12.26-20.57,14.39a22.23,22.23,0,0,1-12.39-.45c-4.37-1.39-8.45-3.64-12.94-4.69s-9.4-1-13.31,1.66c-1.58,1.08-.09,3.68,1.51,2.59Z"/><path class="cls-24" d="M409.79,317.24a28.27,28.27,0,0,1,3.57,9.08,1.5,1.5,0,0,0,1.84,1,1.53,1.53,0,0,0,1.05-1.84,31.17,31.17,0,0,0-3.87-9.8,1.51,1.51,0,0,0-2.05-.53,1.53,1.53,0,0,0-.54,2.05Z"/><path class="cls-24" d="M422.08,311.9a29.6,29.6,0,0,1,2.38,3.74c.35.64.67,1.29,1,2,0,0,.24.56.13.28l.21.53q.21.52.39,1a1.54,1.54,0,0,0,1.85,1.05,1.51,1.51,0,0,0,1-1.84,30.9,30.9,0,0,0-4.37-8.29,1.53,1.53,0,0,0-2.05-.53,1.52,1.52,0,0,0-.54,2Z"/><path class="cls-22" d="M349,356.1c-.14,2.71-.23,5.41-.27,8.12a1.5,1.5,0,0,0,3,0c0-2.71.13-5.41.27-8.12a1.5,1.5,0,0,0-3,0Z"/><path class="cls-22" d="M307.5,370.66c-1.56,6.73,1,15.55,8.83,16.66a1.54,1.54,0,0,0,1.84-1.05,1.5,1.5,0,0,0-1.05-1.84,7.62,7.62,0,0,1-5.9-4.24,13.25,13.25,0,0,1-.83-8.73c.44-1.88-2.45-2.68-2.89-.8Z"/><path class="cls-22" d="M363.4,371.14A10.16,10.16,0,0,1,358.86,385c-1.72.87-.21,3.46,1.52,2.59A13,13,0,0,0,366,369.62c-.91-1.7-3.5-.19-2.59,1.52Z"/><path class="cls-22" d="M317.3,380.4a12,12,0,0,1,11.26,6.33,1.5,1.5,0,0,0,2.6-1.51,15,15,0,0,0-13.86-7.82,1.5,1.5,0,0,0,0,3Z"/><path class="cls-22" d="M331,391.93c1.32,2.17,4,3,6.36,3.23a10.45,10.45,0,0,0,7-1.37c2.69-1.9,2.82-5.76,4.66-8.32a12.33,12.33,0,0,1,8.29-4.89,1.51,1.51,0,0,0,1.05-1.85,1.53,1.53,0,0,0-1.84-1A15,15,0,0,0,345.73,385a40,40,0,0,0-1.85,4.44,3.8,3.8,0,0,1-1.89,2.24,7.84,7.84,0,0,1-3.25.55c-1.62,0-4.22-.27-5.17-1.82s-3.6-.14-2.59,1.51Z"/><path class="cls-20" d="M379.68,283.54a52.19,52.19,0,0,1,42.39-4.86c1.85.59,2.64-2.31.8-2.89a55.19,55.19,0,0,0-44.7,5.16,1.5,1.5,0,0,0,1.51,2.59Z"/><path class="cls-18" d="M331.26,404.52a39.69,39.69,0,0,1,.08,16.21c-.38,1.88,2.51,2.69,2.9.79a43.52,43.52,0,0,0-.09-17.79c-.4-1.89-3.3-1.09-2.89.79Z"/><path class="cls-18" d="M349.91,460.51c5.88.8,11.35,3.44,17.18,4.47a28.35,28.35,0,0,0,20.15-4c1.62-1,.12-3.64-1.51-2.59A25.24,25.24,0,0,1,367,461.91c-5.48-1.17-10.71-3.53-16.29-4.29a1.57,1.57,0,0,0-1.85,1.05,1.5,1.5,0,0,0,1.05,1.84Z"/><path class="cls-18" d="M330.93,458.19c-10.93,3.71-23.39,6.45-34.31,1.19-1.73-.83-3.26,1.75-1.52,2.59,11.72,5.64,24.84,3.11,36.63-.89,1.82-.62,1-3.51-.8-2.89Z"/><path class="cls-24" d="M393.41,312.36c3.87,1.22,7.42,3.2,11.06,5,3.86,1.88,7.79,2.57,11.78.63,1.74-.84.22-3.43-1.51-2.59-3.67,1.78-7.1.21-10.45-1.48a67.47,67.47,0,0,0-10.09-4.41c-1.84-.58-2.63,2.32-.79,2.89Z"/><path class="cls-24" d="M414.2,319.36a23.44,23.44,0,0,0,8.62-4.67,50.29,50.29,0,0,0,7.05-6.71,1.54,1.54,0,0,0,0-2.12,1.5,1.5,0,0,0-2.12,0,51.14,51.14,0,0,1-6.67,6.41,20.73,20.73,0,0,1-7.67,4.2c-1.88.46-1.08,3.35.79,2.89Z"/><path class="cls-20" d="M383.1,512.67c7.89-13.9,18.46-25.86,29.39-37.41,5.49-5.8,11.06-11.54,16.43-17.45s10.73-11.74,14.91-18.42a42.23,42.23,0,0,0,6.48-22.47,1.5,1.5,0,0,0-3,0,38.72,38.72,0,0,1-5.3,19.69c-3.88,6.63-9.2,12.42-14.33,18.11-10.56,11.7-22,22.65-32,34.81a150.19,150.19,0,0,0-15.15,21.63,1.5,1.5,0,0,0,2.59,1.51Z"/><path class="cls-20" d="M466.36,314.52c-3,12.38-7.59,24.84-16.08,34.58a83,83,0,0,1-8.42,8.14,54.39,54.39,0,0,0-6.82,6.58c-4.45,5.48-5.75,12.63-7,19.41-.34,1.89,2.55,2.7,2.9.8,1.08-6,2.2-12.89,5.94-17.77a48,48,0,0,1,6.63-6.5,91.06,91.06,0,0,0,8.36-8,62.75,62.75,0,0,0,8.71-12.6,104,104,0,0,0,8.65-23.88c.46-1.88-2.43-2.68-2.89-.8Z"/><path class="cls-22" d="M299,443.29c7.18-2.81,14.31-5.85,21.59-8.38a25.36,25.36,0,0,1,9.28-1.63c2.6.09,5.48.47,7.7,1.94,1.62,1.07,3.12-1.52,1.52-2.59-2.42-1.6-5.5-2.11-8.34-2.3a25.82,25.82,0,0,0-9.67,1.26c-3.75,1.18-7.38,2.75-11,4.18L298.2,440.4c-1.77.69-1,3.59.8,2.89Z"/><path class="cls-22" d="M340.56,435.21a21,21,0,0,1,10-2.51,43.29,43.29,0,0,1,9.84,1.6c6.26,1.56,12.71,3.45,18.37,6.62,1.69.94,3.2-1.65,1.51-2.59-6.08-3.41-13-5.46-19.78-7.09a41.85,41.85,0,0,0-10.71-1.53,24.24,24.24,0,0,0-10.72,2.91c-1.72.89-.2,3.48,1.51,2.59Z"/><path class="cls-22" d="M299.81,443.42c13.27-.56,26.68-.87,39.82-3,1.9-.3,1.09-3.19-.8-2.89-12.87,2.07-26,2.33-39,2.87-1.93.08-1.94,3.08,0,3Z"/><path class="cls-22" d="M340.81,440.42c12.74.95,25.54.07,38.28,1.14,1.92.17,1.91-2.83,0-3-12.74-1.07-25.54-.19-38.28-1.14-1.93-.15-1.92,2.85,0,3Z"/><path class="cls-22" d="M306.41,442.36c3.45.62,6.87,1.49,10.27,2.35a94.72,94.72,0,0,0,10,2.4c9.16,1.27,18.62.19,27.62-1.64a109.8,109.8,0,0,0,14.92-4.11c1.81-.64,1-3.54-.79-2.89a108.59,108.59,0,0,1-26.76,5.85,68.8,68.8,0,0,1-13.23,0,68.61,68.61,0,0,1-9.91-2.24c-3.74-1-7.5-1.93-11.31-2.61-1.88-.34-2.69,2.55-.79,2.89Z"/><path class="cls-22" d="M306.91,455.73a89.66,89.66,0,0,0,48.43,3.51,85.16,85.16,0,0,0,13.45-4c1.78-.69,1-3.59-.8-2.89a85.13,85.13,0,0,1-47.19,4.19,95.66,95.66,0,0,1-13.09-3.7c-1.82-.65-2.61,2.25-.8,2.89Z"/><path class="cls-21" d="M468.36,218.52c-2.11,12.09-1.71,24.14-.35,36.28.72,6.45,1.67,12.87,2,19.35a141.3,141.3,0,0,1-.2,19,132.41,132.41,0,0,1-3.48,21.4c-.47,1.87,2.43,2.67,2.89.8a138.24,138.24,0,0,0,3.94-37.85c-.41-12.47-2.91-24.76-3.33-37.23a101.78,101.78,0,0,1,1.39-20.92c.33-1.89-2.56-2.7-2.89-.8Z"/><path class="cls-20" d="M441,266.11c4-7.39,1.49-15.73.9-23.59-.68-9.11,2.27-17.8,4.28-26.56A58.29,58.29,0,0,0,448,200.4c-.09-1.92-3.09-1.93-3,0,.39,9-2.54,17.59-4.49,26.27a59.1,59.1,0,0,0-1.68,13c0,4.05.75,8,1.18,12.05.46,4.38.59,8.94-1.56,12.92-.92,1.7,1.67,3.21,2.59,1.51Z"/><path class="cls-20" d="M237.86,263.56c-3.9-7.85-.76-17.27-.41-25.54.39-9.67-2.47-19-4.45-28.38a65.19,65.19,0,0,1-1.68-16.22c.08-2-3.06-2-3.14,0-.4,10,2.52,19.54,4.53,29.19a64.46,64.46,0,0,1,1.62,14.71c-.11,4.54-.93,9-1.29,13.54-.38,4.89-.11,9.82,2.11,14.28.9,1.81,3.6.23,2.71-1.58Z"/><path class="cls-21" d="M500.47,186.24c-1.25,11.32-2.79,22.65-3.66,34a82,82,0,0,0,.5,16.42c.64,5.15,1.52,10.31,1.68,15.51a15.81,15.81,0,0,1-.56,5.22,31.48,31.48,0,0,1-2.87,5.93c-.94,1.68,1.65,3.2,2.59,1.51,1.81-3.22,3.53-6.42,3.8-10.17.35-4.86-.56-9.87-1.2-14.67a93.75,93.75,0,0,1-1.12-16.82c.26-5.73,1-11.45,1.66-17.16l2.18-19.77c.21-1.91-2.79-1.9-3,0Z"/><path class="cls-20" d="M244.31,450.92c2.47,25.53,3.59,51.2,3.75,76.85q.08,11.24-.11,22.47c0,1.93,3,1.93,3,0,.42-26.18-.14-52.39-1.93-78.51q-.71-10.43-1.71-20.81c-.19-1.91-3.19-1.93-3,0Z"/><path class="cls-19" d="M369,308.89A7.67,7.67,0,0,0,377.62,320a1.5,1.5,0,1,0-.8-2.89l-.37.08c-.3.06.21,0-.18,0a6.6,6.6,0,0,1-.77,0l-.45,0c.27,0,0,0-.11,0a6.87,6.87,0,0,1-.75-.19l-.36-.14c.31.12-.07,0-.11-.06a5.51,5.51,0,0,1-.67-.38l-.32-.22c.26.19,0,0-.09-.09-.21-.19-.39-.4-.58-.6s-.06-.06,0,.05l-.12-.16c-.08-.11-.15-.23-.22-.34a3.9,3.9,0,0,1-.19-.35c0-.06-.21-.49-.1-.19-.09-.25-.17-.5-.24-.76s-.06-.26-.08-.39c-.1-.42,0,.29,0-.14,0-.26,0-.53,0-.8s0-.26,0-.4c0-.35-.05.19,0-.13a7.31,7.31,0,0,1,.18-.78,2.18,2.18,0,0,0,.11-.32c-.06.15.13-.26.15-.3a1.5,1.5,0,1,0-2.59-1.52Z"/><path d="M407.57,326.19a29.85,29.85,0,0,0,14.66-3.79c1.68-.94.17-3.54-1.52-2.59a26.74,26.74,0,0,1-13.14,3.38,1.5,1.5,0,0,0,0,3Z"/><path class="cls-20" d="M454.48,351.78c.4,3.43,1.52,7,4.08,9.4a10.69,10.69,0,0,0,10,2.42c7.7-1.8,13-9,16.62-15.54a121.5,121.5,0,0,0,6.29-13.49c.72-1.79-2.18-2.57-2.89-.8a114.91,114.91,0,0,1-6.19,13.14A37.17,37.17,0,0,1,474.67,357c-2.94,2.57-7.21,4.87-11.23,3.69-3.8-1.11-5.53-5.27-6-8.89-.22-1.89-3.23-1.92-3,0Z"/><path class="cls-22" d="M463.44,330.84a.91.91,0,0,1-.16.8c-.92,1.49,1.13,2.95,2.35,1.82a22,22,0,0,1,4.91-3.43c1.69-.87,3.81-1.84,5.75-1.31,2.92.8,3.92,4.64,4.59,7.18a1.51,1.51,0,0,0,2.9-.8c-1-3.68-2.61-8.13-6.69-9.28-2.52-.7-5.11.21-7.38,1.28a24.8,24.8,0,0,0-6.2,4.24l2.36,1.81a4,4,0,0,0,.47-3.11c-.45-1.87-3.34-1.08-2.9.8Z"/><path class="cls-22" d="M487.75,285c2.42-2.57,5.85-6.29,9.81-5.43,3.4.73,5.59,4.31,5.92,7.59a1.54,1.54,0,0,0,1.5,1.5,1.51,1.51,0,0,0,1.5-1.5c-.45-4.51-3.24-9.25-7.88-10.43-5.27-1.34-9.65,2.61-13,6.15-1.33,1.4.79,3.53,2.12,2.12Z"/><path class="cls-20" d="M489,272.09l5.72-4.41c1.66-1.29,3.17-3,5.4-2.9,3.41.16,7.92.66,10,3.74,2.43,3.61,1.85,8.68,1,12.69a81.23,81.23,0,0,1-4,13.06c-.7,1.8,2.2,2.58,2.89.8a85.36,85.36,0,0,0,3.7-11.9c.9-3.93,1.46-8,.6-12a10.53,10.53,0,0,0-6.21-7.83,19.17,19.17,0,0,0-4.84-1.2,14.4,14.4,0,0,0-5.31-.18c-2,.51-3.79,2.37-5.41,3.61L486.92,270a1.51,1.51,0,0,0,0,2.12,1.53,1.53,0,0,0,2.12,0Z"/><path d="M484,301.94a31.06,31.06,0,0,0,11.49-7,1.5,1.5,0,0,0-2.12-2.12,27.8,27.8,0,0,1-10.17,6.26,1.54,1.54,0,0,0-1,1.85,1.5,1.5,0,0,0,1.84,1Z"/><path class="cls-18" d="M481.18,315l-.08-.05a1.56,1.56,0,0,0-1.82.23,1.7,1.7,0,0,0,.47,2.81c1.25.53,2.1-.51,2.67-1.46a27,27,0,0,1,3.42-4.73c2.65-2.88,6.21-5,10.22-4.72,1.93.12,1.92-2.88,0-3a14.91,14.91,0,0,0-10,3.44,21.25,21.25,0,0,0-3.61,3.67c-.57.73-1.11,1.47-1.62,2.25-.22.33-.43.67-.64,1-.12.18-.23.37-.34.56s-.53.56-.1.3l.76-.2h-.17l1.06.43-.09-.07.44,1.06,0,.16-.38.67.07-.07-1.81.24.08.05c1.69.94,3.2-1.65,1.51-2.59Z"/><path class="cls-20" d="M490.87,336.38c5.31-15.76,16.21-29,20.83-45.06a1.5,1.5,0,0,0-2.89-.8c-4.62,16-15.52,29.3-20.83,45.06-.62,1.84,2.28,2.62,2.89.8Z"/><path class="cls-18" d="M383.56,257.21c11.78-7.07,27-5.89,38.84.24a61,61,0,0,1,13.85,10c1.4,1.32,3.52-.79,2.12-2.12-7.18-6.81-15.76-12.29-25.44-14.67a43.56,43.56,0,0,0-21.9.15,36.19,36.19,0,0,0-9,3.78,1.5,1.5,0,0,0,1.51,2.59Z"/><path class="cls-24" d="M390.77,311.43c4.5,1.53,8.78,3.85,13.48,4.78a24.91,24.91,0,0,0,12.27-.71c8.19-2.56,15-8.42,20.59-14.79,1.26-1.45-.85-3.58-2.12-2.12-5.2,6-11.57,11.61-19.26,14a21.83,21.83,0,0,1-11.56.53c-4.36-1-8.37-3.16-12.61-4.59-1.83-.62-2.62,2.27-.79,2.89Z"/><path class="cls-24" d="M422.08,311.9a29.6,29.6,0,0,1,2.38,3.74c.35.64.67,1.29,1,2,0,0,.24.56.13.28l.21.53q.21.52.39,1a1.54,1.54,0,0,0,1.85,1.05,1.51,1.51,0,0,0,1-1.84,30.9,30.9,0,0,0-4.37-8.29,1.53,1.53,0,0,0-2.05-.53,1.52,1.52,0,0,0-.54,2Z"/><path class="cls-20" d="M379.68,283.54a52.19,52.19,0,0,1,42.39-4.86c1.85.59,2.64-2.31.8-2.89a55.19,55.19,0,0,0-44.7,5.16,1.5,1.5,0,0,0,1.51,2.59Z"/><path class="cls-24" d="M393.41,312.36c3.87,1.22,7.42,3.2,11.06,5,3.86,1.88,7.79,2.57,11.78.63,1.74-.84.22-3.43-1.51-2.59-3.67,1.78-7.1.21-10.45-1.48a67.47,67.47,0,0,0-10.09-4.41c-1.84-.58-2.63,2.32-.79,2.89Z"/><path class="cls-24" d="M414.2,319.36a23.44,23.44,0,0,0,8.62-4.67,50.29,50.29,0,0,0,7.05-6.71,1.54,1.54,0,0,0,0-2.12,1.5,1.5,0,0,0-2.12,0,51.14,51.14,0,0,1-6.67,6.41,20.73,20.73,0,0,1-7.67,4.2c-1.88.46-1.08,3.35.79,2.89Z"/><path class="cls-20" d="M383.1,512.67c10.95-19.29,27-34.64,42-50.72,4.38-4.7,8.68-9.49,12.77-14.45,1.22-1.48-.89-3.62-2.12-2.13-14.25,17.28-31.16,32.21-44.77,50a139,139,0,0,0-10.48,15.76,1.5,1.5,0,0,0,2.59,1.51Z"/><path class="cls-20" d="M466.36,314.52c-2.79,11.37-6.83,22.81-14.09,32.16-4.17,5.39-9.48,9.44-14.38,14.1a26,26,0,0,0-5.64,7.33c-.83,1.73,1.76,3.26,2.59,1.52,2.44-5.05,7.16-8.45,11.38-12.23a65.54,65.54,0,0,0,15.44-20.29,108.22,108.22,0,0,0,7.59-21.79c.46-1.88-2.43-2.68-2.89-.8Z"/><path class="cls-18" d="M407.57,326.19a29.85,29.85,0,0,0,14.66-3.79c1.68-.94.17-3.54-1.52-2.59a26.74,26.74,0,0,1-13.14,3.38,1.5,1.5,0,0,0,0,3Z"/><path class="cls-25" d="M299.85,309.5c-7.78-5.33-16.92-.34-24.56,2.45a23.31,23.31,0,0,1-12.57,1.37,31.12,31.12,0,0,1-11.36-5,56.19,56.19,0,0,1-10.72-9.77c-1.27-1.46-3.38.67-2.12,2.12,5.54,6.37,12.4,12.23,20.58,14.79a25,25,0,0,0,12.28.71c4.71-.93,9-3.28,13.48-4.78s9.47-2.08,13.48.66c1.59,1.09,3.09-1.51,1.51-2.59Z"/><path class="cls-25" d="M263.24,315.72a31.38,31.38,0,0,0-3.86,9.8,1.5,1.5,0,0,0,2.89.8,28.48,28.48,0,0,1,3.56-9.08,1.5,1.5,0,0,0-2.59-1.52Z"/><path class="cls-25" d="M251,310.38a31.22,31.22,0,0,0-4.38,8.29,1.51,1.51,0,0,0,1,1.84,1.54,1.54,0,0,0,1.85-1.05q.18-.52.39-1l.21-.53c-.11.28.11-.24.13-.28.29-.67.61-1.32,1-2a29.6,29.6,0,0,1,2.38-3.74,1.5,1.5,0,0,0-.54-2,1.54,1.54,0,0,0-2,.53Z"/><path d="M297.46,281a55.19,55.19,0,0,0-44.7-5.16c-1.84.58-1,3.48.79,2.89a52.21,52.21,0,0,1,42.4,4.86,1.5,1.5,0,0,0,1.51-2.59Z"/><path class="cls-25" d="M281.42,309.47a67.81,67.81,0,0,0-10.08,4.41c-3.35,1.69-6.78,3.26-10.45,1.48-1.73-.84-3.25,1.74-1.52,2.59,4,1.94,7.93,1.25,11.79-.63,3.64-1.76,7.19-3.74,11.06-5,1.84-.57,1-3.47-.8-2.89Z"/><path class="cls-25" d="M262.22,316.47a20.73,20.73,0,0,1-7.67-4.2,50.52,50.52,0,0,1-6.67-6.41,1.5,1.5,0,0,0-2.12,0,1.53,1.53,0,0,0,0,2.12,50.77,50.77,0,0,0,7,6.71,23.59,23.59,0,0,0,8.62,4.67c1.88.46,2.68-2.43.8-2.89Z"/><path class="cls-23" d="M304.07,310.41a3,3,0,0,1,.17.36c-.12-.3,0,.14.06.2a5,5,0,0,1,.2.78l0,.19h0c0,.14,0,.27,0,.4s0,.54,0,.8.05-.22,0,.14c0,.13-.05.26-.08.39a6.75,6.75,0,0,1-.25.76c.11-.29,0,.07-.06.13a3.9,3.9,0,0,1-.19.35l-.21.34a1.77,1.77,0,0,1-.16.22c.09-.11.1-.13,0-.05s-.34.38-.53.56c0,0-.33.28-.19.17s-.23.16-.27.18a6.38,6.38,0,0,1-.67.38c-.07,0-.42.18-.11.06l-.37.14a6.17,6.17,0,0,1-.74.19c-.13,0-.38.07-.11,0l-.39,0a6.62,6.62,0,0,1-.77,0l-.25,0h.08l-.45-.09A1.5,1.5,0,1,0,298,320a7.67,7.67,0,0,0,8.65-11.06,1.51,1.51,0,0,0-2.05-.54,1.54,1.54,0,0,0-.54,2.06Z"/><path d="M268.06,323.19a26.71,26.71,0,0,1-13.14-3.38c-1.69-.94-3.21,1.65-1.52,2.59a29.83,29.83,0,0,0,14.66,3.79,1.5,1.5,0,0,0,0-3Z"/><path class="cls-25" d="M284.07,308.54c-4.24,1.43-8.25,3.56-12.62,4.59a21.8,21.8,0,0,1-11.55-.53c-7.69-2.4-14.06-8-19.26-14-1.27-1.46-3.38.67-2.12,2.12,5.54,6.37,12.4,12.23,20.58,14.79a25,25,0,0,0,12.28.71c4.7-.93,9-3.25,13.48-4.78,1.82-.62,1-3.51-.79-2.89Z"/><path class="cls-25" d="M251,310.38a31.22,31.22,0,0,0-4.38,8.29,1.51,1.51,0,0,0,1,1.84,1.54,1.54,0,0,0,1.85-1.05q.18-.52.39-1l.21-.53c-.11.28.11-.24.13-.28.29-.67.61-1.32,1-2a29.6,29.6,0,0,1,2.38-3.74,1.5,1.5,0,0,0-.54-2,1.54,1.54,0,0,0-2,.53Z"/><path class="cls-23" d="M297.46,281a55.19,55.19,0,0,0-44.7-5.16c-1.84.58-1,3.48.79,2.89a52.21,52.21,0,0,1,42.4,4.86,1.5,1.5,0,0,0,1.51-2.59Z"/><path class="cls-25" d="M281.42,309.47a67.81,67.81,0,0,0-10.08,4.41c-3.35,1.69-6.78,3.26-10.45,1.48-1.73-.84-3.25,1.74-1.52,2.59,4,1.94,7.93,1.25,11.79-.63,3.64-1.76,7.19-3.74,11.06-5,1.84-.57,1-3.47-.8-2.89Z"/><path class="cls-25" d="M262.22,316.47a20.73,20.73,0,0,1-7.67-4.2,50.52,50.52,0,0,1-6.67-6.41,1.5,1.5,0,0,0-2.12,0,1.53,1.53,0,0,0,0,2.12,50.77,50.77,0,0,0,7,6.71,23.59,23.59,0,0,0,8.62,4.67c1.88.46,2.68-2.43.8-2.89Z"/><path class="cls-23" d="M268.06,323.19a26.71,26.71,0,0,1-13.14-3.38c-1.69-.94-3.21,1.65-1.52,2.59a29.83,29.83,0,0,0,14.66,3.79,1.5,1.5,0,0,0,0-3Z"/><path class="cls-20" d="M474.89,360.62c8.36-6.27,12.82-16.62,16.62-26.05.72-1.79-2.18-2.57-2.89-.8a111.15,111.15,0,0,1-6.5,13.68A34,34,0,0,1,473.38,358c-1.53,1.15,0,3.75,1.51,2.59Z"/><path class="cls-18" d="M471.84,329.41a7.65,7.65,0,0,1,4.05-.79,3.89,3.89,0,0,1,.49.12c.05,0,.43.15.29.09s.17.08.2.1l.36.2.35.22c.34.23-.17-.18.12.11a8.07,8.07,0,0,1,.59.58c.1.1.19.21.28.32-.16-.2.07.1.1.15a7.65,7.65,0,0,1,.43.67c.14.23.27.47.39.71s.13.26.19.4.19.42.09.19a24,24,0,0,1,1.11,3.42,1.5,1.5,0,0,0,2.9-.8c-.7-2.62-1.62-5.4-3.55-7.39a7.06,7.06,0,0,0-3.64-2,9.92,9.92,0,0,0-5.55.81,1.55,1.55,0,0,0-1.05,1.84,1.51,1.51,0,0,0,1.85,1.05Z"/><path class="cls-18" d="M484,301.94a31.06,31.06,0,0,0,11.49-7,1.5,1.5,0,0,0-2.12-2.12,27.8,27.8,0,0,1-10.17,6.26,1.54,1.54,0,0,0-1,1.85,1.5,1.5,0,0,0,1.84,1Z"/><path class="cls-22" d="M488.06,309.71c-.11.07-.09.06.06,0l.25-.18.5-.35c.3-.2.61-.39.92-.56s.73-.39,1.1-.56l.28-.13c-.12.06-.1.05.07,0l.5-.19a12.89,12.89,0,0,1,2.22-.56h0l.31,0,.6,0a9.9,9.9,0,0,1,1.22,0,1.5,1.5,0,0,0,1.5-1.5,1.53,1.53,0,0,0-1.5-1.5,15,15,0,0,0-10.12,3.52,1.5,1.5,0,0,0,0,2.13,1.56,1.56,0,0,0,2.12,0Z"/><path class="cls-20" d="M290,497.89c-8.22-11.18-17.84-21.18-27.39-31.21-4.87-5.11-9.71-10.24-14.36-15.55-4.29-4.91-8.62-9.9-11.77-15.64a38.46,38.46,0,0,1-4.66-18.57,1.5,1.5,0,0,0-3,0,41.59,41.59,0,0,0,3.68,17.34c2.62,5.7,6.54,10.66,10.56,15.42,9.25,10.95,19.47,21,29.15,31.56a214.39,214.39,0,0,1,15.2,18.17c1.13,1.54,3.74,0,2.59-1.52Z"/><path class="cls-20" d="M210.18,320.44c2.22,9.33,6.93,17.7,12.78,25.23a142.81,142.81,0,0,0,9.52,10.9c1.66,1.75,3.35,3.47,5,5.18a32.54,32.54,0,0,1,4.76,5.4,30.61,30.61,0,0,1,4.36,15c.09,1.92,3.09,1.93,3,0a35.67,35.67,0,0,0-3.3-13.86,22.64,22.64,0,0,0-3.77-5.71c-1.72-1.79-3.51-3.51-5.25-5.29-6.75-6.9-13.33-14.12-18.18-22.53a56.49,56.49,0,0,1-6.07-15.1c-.45-1.88-3.34-1.08-2.89.8Z"/><path class="cls-20" d="M340.81,518.42c7,.62,14,1.41,21,2,1.92.16,1.91-2.84,0-3-7-.59-14-1.38-21-2-1.93-.17-1.91,2.83,0,3Z"/><path class="cls-20" d="M340.81,515.42c-4.56.39-9.13.59-13.69.84a1.53,1.53,0,0,0-1.5,1.5,1.51,1.51,0,0,0,1.5,1.5c4.56-.25,9.13-.45,13.69-.84a1.54,1.54,0,0,0,1.5-1.5,1.51,1.51,0,0,0-1.5-1.5Z"/><path class="cls-20" d="M221.66,351.78c-.58,4.87-3.78,9.69-9.21,9.13-5.85-.6-10.32-5.65-13.42-10.21-1.07-1.59-3.67-.09-2.59,1.51,3.83,5.65,9.43,11.55,16.74,11.75,6.86.18,10.75-6.06,11.48-12.18.23-1.91-2.77-1.9-3,0Z"/><path class="cls-20" d="M219.35,340.64a194.11,194.11,0,0,1,8.07,32,163.53,163.53,0,0,1,1.8,26.62c0,5.88-.21,11.76-.38,17.65-.06,1.93,2.94,1.93,3,0,.29-9.84.66-19.7.13-29.54a165.8,165.8,0,0,0-4.22-28.46,194.08,194.08,0,0,0-5.51-19.07c-.62-1.82-3.52-1-2.89.79Z"/><path class="cls-20" d="M290,497.89c-10.76-14.63-23.9-27.2-36.16-40.54-3.59-3.91-7.1-7.88-10.48-12-1.23-1.49-3.34.65-2.12,2.13,11.53,14,24.75,26.39,36.63,40.05,3.33,3.83,6.53,7.77,9.54,11.86,1.13,1.54,3.74,0,2.59-1.52Z"/><path class="cls-20" d="M211,323.76c2.69,14.58,13.41,25.15,23.35,35.33,3,3,5.9,6.11,8.65,9.34,1.26,1.47,3.37-.66,2.13-2.12-9.1-10.66-20.84-19.61-27.42-32.23A39.75,39.75,0,0,1,213.92,323c-.35-1.9-3.24-1.1-2.89.79Z"/><path class="cls-20" d="M205.77,358l-.27-.2c-.14-.1.14.12-.07-.06l-.52-.42c-.33-.27-.65-.56-1-.84-.65-.6-1.26-1.22-1.85-1.87s-1.12-1.28-1.64-1.95c.17.22,0,0-.06-.07l-.2-.27-.4-.54L199,350.7a1.5,1.5,0,1,0-2.59,1.51,34,34,0,0,0,7.81,8.41,1.51,1.51,0,0,0,2.06-.53,1.56,1.56,0,0,0-.54-2.06Z"/><path class="cls-20" d="M287.51,499.67c4.16,5.46,8.31,11.46,14,15.43a20.76,20.76,0,0,0,7,2.83,59.33,59.33,0,0,0,9.18,1.39,55.06,55.06,0,0,0,9.08.1c1.91-.17,1.92-3.17,0-3a57,57,0,0,1-15.85-1,23.26,23.26,0,0,1-7-2.31,29,29,0,0,1-6.72-6.07c-2.52-2.83-4.8-5.85-7.09-8.85-1.15-1.52-3.76,0-2.59,1.51Z"/><path class="cls-20" d="M384.75,504.86c-3.09,3.52-5.7,7.74-9.88,10.08-3.95,2.22-8.64,2.46-13.06,2.48a1.5,1.5,0,0,0,0,3c4.87,0,9.95-.39,14.32-2.75,4.58-2.47,7.4-6.88,10.74-10.69,1.26-1.45-.85-3.58-2.12-2.12Z"/><path class="cls-26" d="M217.88,364c3.05,18.54,6.11,37.29,5.13,56.16-.8,15.33-4.58,30.7-12.66,43.88a62.43,62.43,0,0,1-16.64,18.19c-1.56,1.12-.06,3.72,1.51,2.59,12.51-9,21-22.31,25.76-36.78,5.59-16.83,6-34.81,4.36-52.32-1-10.9-2.79-21.72-4.57-32.52-.31-1.9-3.2-1.1-2.89.8Z"/><path class="cls-21" d="M195.2,485.36c12.53-4.2,25.12-9.93,33.67-20.38,1.21-1.49-.9-3.62-2.12-2.12-8.24,10.06-20.27,15.56-32.34,19.61-1.82.61-1,3.51.79,2.89Z"/><path class="cls-21" d="M226.67,464.34c-.17,8.48-.1,17.21,2.18,25.44a69.32,69.32,0,0,0,9.79,20.8,54.62,54.62,0,0,0,8.11,9.4c1.42,1.29,3.55-.82,2.12-2.12a58,58,0,0,1-12.66-17.32A56.84,56.84,0,0,1,230.09,480c-.41-5.2-.53-10.44-.42-15.66,0-1.93-3-1.93-3,0Z"/><path class="cls-21" d="M190.05,261.6c-3.44-12.56,0-25.54,1.69-38.09a206.67,206.67,0,0,0,1.36-39.63,214.17,214.17,0,0,0-2.55-22c-.32-1.9-3.22-1.1-2.9.79a204.62,204.62,0,0,1,2.76,39.85q-.27,9.81-1.49,19.55c-.79,6.38-2,12.7-2.77,19.09-.82,7.1-.9,14.31,1,21.25a1.5,1.5,0,0,0,2.9-.79Z"/><path class="cls-21" d="M213.17,200.12c-10.33,18.41-6.88,40.09-5.88,60.15a119.43,119.43,0,0,1-.32,18.82c-.2,1.92,2.8,1.91,3,0,2.23-20.68-3.72-41.58.33-62.15a51.5,51.5,0,0,1,5.46-15.31,1.5,1.5,0,0,0-2.59-1.51Z"/><path class="cls-21" d="M427.05,185.21c3.77,1.85,7,4.71,10.16,7.41a104.6,104.6,0,0,1,9.79,8.91c6.15,6.75,11.53,14.46,20.25,18.09,4.54,1.9,9.66,2.47,14.3.59,1.76-.71,1-3.62-.8-2.89-8.36,3.39-17-2-22.69-7.83-3.19-3.26-6-6.88-9.09-10.24a100.26,100.26,0,0,0-9.34-8.5c-3.45-2.94-7-6.12-11.07-8.13-1.72-.85-3.25,1.74-1.51,2.59Z"/><path class="cls-17" d="M426.56,182.62A39.92,39.92,0,0,1,415,171.21a61.12,61.12,0,0,1-7-17.06,91.27,91.27,0,0,1-1.54-39.09c2-11.3,5.46-23,12.8-32.09a47.53,47.53,0,0,1,21.9-14.9c9.21-3.1,19-3.91,28.68-3.65,1.93,0,1.93-3,0-3-18.29-.5-37.89,3.22-50.81,17.24-8.08,8.78-12.24,20.2-14.71,31.7a96.47,96.47,0,0,0-.19,40.53,70.23,70.23,0,0,0,7.51,20.59,43.08,43.08,0,0,0,13.44,13.73c1.6,1.09,3.11-1.51,1.51-2.59Z"/><path class="cls-17" d="M427.44,182.46c-12.51-.66-23.67-8.37-30.63-18.5s-10.57-22.8-11.53-35.11c-1.74-22.25,5.08-44.8,18.1-62.84a89.27,89.27,0,0,1,27.33-24.94,1.5,1.5,0,0,0-1.52-2.59C409,50.25,394.07,69.89,386.84,92a95.76,95.76,0,0,0-4.72,34.34c.62,12.59,3.75,25.46,10.29,36.32,7.48,12.42,20.2,22,35,22.8,1.93.1,1.93-2.9,0-3Z"/><path class="cls-17" d="M330.59,131.54a80.66,80.66,0,0,1,.34-53c5.64-15.38,16.22-28.58,28.45-39.27a123.11,123.11,0,0,1,24.83-16.78c1.72-.88.21-3.47-1.51-2.59a122.94,122.94,0,0,0-40.85,33.44,92.55,92.55,0,0,0-12.7,21.55,79.39,79.39,0,0,0-5.77,26.16,85.55,85.55,0,0,0,4.31,31.27c.61,1.82,3.51,1,2.9-.8Z"/><path class="cls-17" d="M423,182.05c-21.25,5.17-44,.55-62.18-11.38a82.22,82.22,0,0,1-14-11.6c-1.34-1.39-3.46.74-2.12,2.13a85.41,85.41,0,0,0,60,26A78.35,78.35,0,0,0,423.8,185c1.87-.46,1.08-3.35-.8-2.9Z"/><path class="cls-17" d="M419.81,182.42c-13.19-.08-25.81-5.1-36.29-13a74.59,74.59,0,0,1-24.2-31.32c-5.75-14.22-6.3-30-3.07-44.87,3.31-15.33,10.41-29.45,19.59-42.09S396,27.57,407.54,17.25q2.16-1.92,4.34-3.82c1.46-1.27-.67-3.39-2.12-2.12-12.06,10.5-23.66,21.63-33.47,34.3S358.54,72.5,354.41,88.09c-4.07,15.32-4.51,31.87.59,47A77.25,77.25,0,0,0,378.12,169c10.34,8.8,23,14.92,36.64,16.22,1.67.16,3.36.24,5.05.25a1.5,1.5,0,0,0,0-3Z"/><path class="cls-17" d="M298.27,41.22C302,28.66,296.42,16,291.18,4.72c-.82-1.75-3.4-.23-2.59,1.51,4.89,10.48,10.26,22.47,6.79,34.19-.55,1.86,2.35,2.65,2.89.8Z"/><path class="cls-21" d="M345.41,181.47a55.31,55.31,0,0,1-26.22,3.36,62.69,62.69,0,0,1-24.62-8.7,1.5,1.5,0,0,0-1.52,2.59,66.63,66.63,0,0,0,25.71,9.06,57.3,57.3,0,0,0,27.44-3.42c1.79-.68,1-3.58-.79-2.89Z"/><path class="cls-21" d="M290.05,7.21a39,39,0,0,1,14.56,24c.33,1.9,3.22,1.1,2.89-.79A41.9,41.9,0,0,0,291.56,4.62c-1.55-1.15-3,1.45-1.51,2.59Z"/><path class="cls-21" d="M241.69,189a59.57,59.57,0,0,0,15.66-3.81,1.54,1.54,0,0,0,1-1.84,1.51,1.51,0,0,0-1.84-1.05,57.07,57.07,0,0,1-14.87,3.7,1.54,1.54,0,0,0-1.5,1.5,1.51,1.51,0,0,0,1.5,1.5Z"/><path class="cls-17" d="M184.71,113.16c.15,15.25.56,31,6.44,45.32a54.82,54.82,0,0,0,10.54,16.85,43.27,43.27,0,0,0,16.87,11.06A52.65,52.65,0,0,0,241.69,189c1.9-.19,1.92-3.19,0-3-13.24,1.33-27-2-36.64-11.54S191,151.9,189.14,138.9a195.79,195.79,0,0,1-1.43-25.74,1.5,1.5,0,0,0-3,0Z"/><path class="cls-21" d="M257.75,182.46a51.63,51.63,0,0,0,31.37-1c1.79-.66,1-3.56-.8-2.89a48.87,48.87,0,0,1-29.78,1,1.5,1.5,0,0,0-.79,2.89Z"/><path class="cls-17" d="M246.09,35.79c-19.6,12.85-30.86,35.86-35,58.38-4.24,23.16-.9,49,14.55,67.61a64.38,64.38,0,0,0,32.09,20.68,1.5,1.5,0,0,0,.79-2.89,61.41,61.41,0,0,1-28.15-17c-7.75-8.19-12.85-18.54-15.57-29.43-5.52-22.13-1.53-46.6,8.75-66.78,5.65-11.08,13.56-21.13,24-28,1.61-1.06.11-3.65-1.51-2.59Z"/><path class="cls-21" d="M251,15.75a34.16,34.16,0,0,1,.91,36.05,1.5,1.5,0,0,0,2.59,1.51,37.14,37.14,0,0,0-.91-39.07c-1.06-1.6-3.66-.1-2.59,1.51Z"/><path class="cls-17" d="M425.25,183.52a52.7,52.7,0,0,1,9-37.16,59.41,59.41,0,0,1,31.6-23.28,58.26,58.26,0,0,1,22.31-2.28c1.92.17,1.91-2.83,0-3A61.73,61.73,0,0,0,423.94,161a55.22,55.22,0,0,0-1.58,23.33c.26,1.9,3.15,1.09,2.89-.8Z"/><path class="cls-21" d="M476,110.36a16,16,0,0,1,11.25,9.23,1.56,1.56,0,0,0,1.85,1,1.53,1.53,0,0,0,1.05-1.85,19.07,19.07,0,0,0-13.35-11.33,1.5,1.5,0,0,0-.8,2.9Z"/><path class="cls-21" d="M455.77,73a22.3,22.3,0,0,1,15.7-7.47c1.92-.07,1.93-3.07,0-3a25.29,25.29,0,0,0-17.82,8.35c-1.28,1.44.83,3.56,2.12,2.12Z"/><path class="cls-21" d="M465.46,74.1A43.82,43.82,0,0,1,475,99.44c.09,1.92,3.09,1.93,3,0A47.32,47.32,0,0,0,467.59,72c-1.21-1.5-3.33.63-2.13,2.13Z"/><path class="cls-21" d="M490.06,126.81c3.59,8.49,7.53,16.94,10.08,25.82,2.42,8.42,3.4,17.33.25,25.69-.69,1.81,2.21,2.59,2.89.8,3.27-8.68,2.35-18.09-.12-26.85-2.61-9.28-6.76-18.11-10.51-27a1.5,1.5,0,1,0-2.59,1.51Z"/><path class="cls-21" d="M187,113.52,193.17,132c.6,1.83,3.5,1.05,2.89-.79l-6.13-18.53c-.6-1.83-3.5-1-2.89.8Z"/><path class="cls-21" d="M200.46,127.36a95,95,0,0,1,2.29-26.63c1.83-7.85,4.71-15.47,9.5-22,1.14-1.56-1.46-3.06-2.59-1.52-4.93,6.73-7.92,14.66-9.8,22.73a98.05,98.05,0,0,0-2.4,27.43c.1,1.92,3.1,1.93,3,0Z"/><path class="cls-21" d="M252.05,16.21c8.88,5.84,15,16.65,14.12,27.39-.16,1.93,2.84,1.92,3,0,.95-11.8-5.89-23.6-15.61-30-1.62-1.06-3.12,1.53-1.51,2.59Z"/><path class="cls-21" d="M269.1,43.67a159.83,159.83,0,0,0,8.1-24.1c.48-1.88-2.42-2.67-2.9-.8a155.37,155.37,0,0,1-7.79,23.39c-.76,1.75,1.82,3.28,2.59,1.51Z"/><path class="cls-21" d="M334.81,34.42c17.1-1,30.42-13.46,41.53-25.29,1.32-1.41-.8-3.53-2.12-2.12-10.5,11.18-23.19,23.5-39.41,24.41-1.92.1-1.94,3.1,0,3Z"/><path class="cls-21" d="M365.77,28a44.75,44.75,0,0,0,12.71-26.6c.21-1.91-2.79-1.9-3,0a41.54,41.54,0,0,1-11.83,24.48A1.5,1.5,0,0,0,365.77,28Z"/><path class="cls-17" d="M240.8,119c-1.23,23.79,12.66,47.84,34.18,58.24,6.89,3.34,14.91,5.46,22.47,3.2,1.84-.55,1.06-3.45-.8-2.89-6.4,1.91-13.24.28-19.17-2.43a54.74,54.74,0,0,1-14.25-9.5,60.91,60.91,0,0,1-17.29-28A57.15,57.15,0,0,1,243.8,119c.11-1.93-2.9-1.92-3,0Z"/><path class="cls-21" d="M203.26,190.59c1.27,7,9.15,10.1,15.52,9.23,4.13-.56,7.94-2.34,11.61-4.24,4.05-2.09,8.07-4.23,12.1-6.35,1.71-.9.19-3.49-1.52-2.59l-10.7,5.62a43.67,43.67,0,0,1-10.14,4.28c-5.38,1.27-12.83-.42-14-6.75-.35-1.9-3.24-1.09-2.9.8Z"/><path class="cls-17" d="M424.08,182c6.32,2.22,12.63,4.5,19,6.63,6,2,12.19,3.75,18.56,4a41.35,41.35,0,0,0,27.5-9.87,39.57,39.57,0,0,0,10.31-13.28c.82-1.73-1.77-3.25-2.59-1.51a38.4,38.4,0,0,1-20.52,19,37.18,37.18,0,0,1-13.78,2.64c-5.94,0-11.74-1.58-17.34-3.41-6.82-2.22-13.56-4.7-20.33-7.07-1.82-.64-2.61,2.26-.79,2.89Z"/><path class="cls-17" d="M426.2,185.36c11.32-2.19,22-7.19,31.6-13.52a111.35,111.35,0,0,0,26.2-24,86.76,86.76,0,0,0,10.22-16.21c.83-1.73-1.76-3.26-2.59-1.51A93,93,0,0,1,471.58,157a106.3,106.3,0,0,1-28.76,19.74,76.32,76.32,0,0,1-17.41,5.69c-1.9.37-1.09,3.26.79,2.89Z"/><path class="cls-17" d="M427.25,184.32c2.06-7.68,6.62-14.49,11.9-20.34a83.18,83.18,0,0,1,17.71-14.85,52.69,52.69,0,0,1,9.34-4.77c1.8-.66,1-3.57-.79-2.89-6.69,2.49-12.77,6.52-18.32,10.95A77,77,0,0,0,430,171a45.5,45.5,0,0,0-5.65,12.53,1.5,1.5,0,0,0,2.89.8Z"/><path class="cls-17" d="M448.41,142.45a38.93,38.93,0,0,1,17.36,2c1.83.64,2.61-2.26.8-2.9a41.18,41.18,0,0,0-18.16-2.05,1.54,1.54,0,0,0-1.5,1.5,1.51,1.51,0,0,0,1.5,1.5Z"/><path class="cls-17" d="M280.05,96.22c1.68-21,12.58-40.9,28.77-54.33a76,76,0,0,1,14.92-9.66c1.73-.86.21-3.45-1.52-2.59A83.37,83.37,0,0,0,280.69,78a78.55,78.55,0,0,0-3.64,18.2c-.15,1.93,2.85,1.92,3,0Z"/><path class="cls-21" d="M324.56,31.75a33.29,33.29,0,0,0,18-19.23c.66-1.82-2.24-2.6-2.89-.8a30.41,30.41,0,0,1-16.59,17.44,1.5,1.5,0,0,0-.54,2.05,1.54,1.54,0,0,0,2.05.54Z"/><path class="cls-21" d="M335.1,34.67c3.38-7,6.63-14.51,8-22.24.34-1.89-2.55-2.7-2.89-.8-1.35,7.49-4.46,14.7-7.73,21.53-.83,1.73,1.76,3.26,2.59,1.51Z"/><path class="cls-21" d="M410.24,40.06a32.65,32.65,0,0,1,30.64-2.89,1.52,1.52,0,0,0,1.84-1.05,1.54,1.54,0,0,0-1-1.85,35.44,35.44,0,0,0-32.95,3.2c-1.6,1.07-.1,3.67,1.51,2.59Z"/><path class="cls-21" d="M405.47,32.33a38.8,38.8,0,0,0,7.09-20.24c.12-1.92-2.88-1.92-3,0a35.92,35.92,0,0,1-6.68,18.72,1.5,1.5,0,1,0,2.59,1.52Z"/><path class="cls-21" d="M430,55a30,30,0,0,1,24.5-3.3A32.28,32.28,0,0,1,464,55.9a20.82,20.82,0,0,1,6.53,7.77c.88,1.72,3.47.21,2.59-1.51a24.48,24.48,0,0,0-12.8-11.6A36,36,0,0,0,440,48a32.22,32.22,0,0,0-11.45,4.46c-1.62,1-.12,3.63,1.52,2.59Z"/><path class="cls-17" d="M424.53,175.44a72.92,72.92,0,0,1-1.75-41.91A72.37,72.37,0,0,1,458.2,88.38c1.7-.93.19-3.52-1.51-2.59a75.9,75.9,0,0,0-28,26.42,75.22,75.22,0,0,0-7.07,64c.63,1.81,3.53,1,2.9-.8Z"/><path class="cls-21" d="M207.36,276.52c-1.82,10.37-1.11,21,.76,31.28.35,1.9,3.24,1.1,2.89-.79-1.77-9.75-2.48-19.89-.76-29.69.33-1.89-2.56-2.7-2.89-.8Z"/><path class="cls-20" d="M190,264c-2.58-2.27-5.83-3.63-9.26-2.67a13.23,13.23,0,0,0-7.36,6.14c-3.79,6.21-3.64,14.49-2,21.35a38.83,38.83,0,0,0,5,11.76c1,1.63,3.63.13,2.59-1.51-4.35-6.84-6.64-15.41-5.31-23.49.6-3.66,2-7.27,4.91-9.73s6.43-2.24,9.29.27c1.44,1.28,3.57-.84,2.12-2.12Z"/><path class="cls-22" d="M181,281.09a1.89,1.89,0,0,1,2.57-1.28,8,8,0,0,1,3.28,2.52c2.1,2.24,4.17,4.52,6.12,6.9a46.47,46.47,0,0,1,8.36,15.09c.6,1.82,3.49,1,2.89-.8a52.47,52.47,0,0,0-10.57-18.13c-1.2-1.39-2.44-2.75-3.68-4.11a18.35,18.35,0,0,0-4-3.68c-2.71-1.57-7.24-1-7.82,2.7-.3,1.89,2.59,2.7,2.89.79Z"/><path class="cls-22" d="M205.6,343.71c-2.74-3.3-1-8.31.3-11.83,1.64-4.45,3.2-9.3.94-13.83-.86-1.72-3.45-.21-2.59,1.52,2.26,4.52-.81,9.7-2.11,14-1.24,4.13-1.58,8.72,1.33,12.22,1.24,1.49,3.35-.65,2.13-2.12Z"/><path class="cls-22" d="M193.74,302.89a8.43,8.43,0,0,1-1.64,1c.35-.16-.12.05-.19.07a4,4,0,0,1-.45.15,7.89,7.89,0,0,1-.93.23l-.24,0c.2,0,.22,0,0,0l-.47,0a7.69,7.69,0,0,1-1,0,2.5,2.5,0,0,1-.47-.05c.39.11-.11,0-.19,0-.32-.06-.62-.15-.93-.24a1.5,1.5,0,0,0-1.84,1.05,1.52,1.52,0,0,0,1,1.84,9.87,9.87,0,0,0,8.75-1.47,1.72,1.72,0,0,0,.69-.9,1.54,1.54,0,0,0-.16-1.15,1.51,1.51,0,0,0-2-.54Z"/><path class="cls-22" d="M190.55,316.92a18.93,18.93,0,0,0,7.39-4.36,1.51,1.51,0,0,0,0-2.12,1.53,1.53,0,0,0-2.12,0c-.23.22-.47.43-.71.64l-.34.29c-.07.05-.15.15-.22.17s.18-.14,0,0a19.09,19.09,0,0,1-1.59,1.06,16,16,0,0,1-1.65.85,1.13,1.13,0,0,1-.25.12s.25-.11,0,0l-.42.16-1,.34a1.5,1.5,0,0,0,.79,2.89Z"/><path class="cls-20" d="M176.54,300.94c2.68,6.79,6.74,12.93,9.44,19.7a37.61,37.61,0,0,1,2.59,10.81,42.13,42.13,0,0,0,2,11.09,31.91,31.91,0,0,0,6.23,10.35c1.3,1.44,3.41-.69,2.13-2.12a28.11,28.11,0,0,1-6.28-11.59c-1.25-4.71-.93-9.65-2.15-14.38-2.26-8.81-7.78-16.27-11.08-24.66-.7-1.77-3.6-1-2.9.8Z"/><path class="cls-18" d="M129.11,690.23l-24.3,20.17c-1.49,1.23.64,3.34,2.12,2.12l24.3-20.17c1.49-1.24-.64-3.35-2.12-2.12Z"/><path class="cls-21" d="M209.39,362.18c2.94,20.67,1.84,42.59-4.32,62.62a65.3,65.3,0,0,1-6.76,15.29c-1,1.65,1.58,3.16,2.59,1.52,5.45-8.84,8.31-19,10.24-29.1a155.38,155.38,0,0,0,2.7-32.5,156.89,156.89,0,0,0-1.56-18.63c-.27-1.91-3.16-1.1-2.89.8Z"/><path class="cls-21" d="M199,444.06a54,54,0,0,0,26.22-22c1-1.65-1.59-3.16-2.59-1.51a50.72,50.72,0,0,1-24.43,20.66c-1.77.7-1,3.6.8,2.89Z"/><path class="cls-21" d="M187.07,261a150.37,150.37,0,0,0,16.11,47q3.4,6.3,7.41,12.24a1.5,1.5,0,0,0,2.74-1.15l-2.55-14.9c-.32-1.9-3.21-1.09-2.89.8l2.55,14.9,2.74-1.16A147.83,147.83,0,0,1,192.9,274c-1.2-4.55-2.17-9.15-2.94-13.78-.31-1.9-3.2-1.1-2.89.79Z"/><path class="cls-24" d="M409.79,317.24a28.27,28.27,0,0,1,3.57,9.08,1.5,1.5,0,0,0,1.84,1,1.53,1.53,0,0,0,1.05-1.84,31.17,31.17,0,0,0-3.87-9.8,1.51,1.51,0,0,0-2.05-.53,1.53,1.53,0,0,0-.54,2.05Z"/><path class="cls-20" d="M456.9,339.85a193.15,193.15,0,0,0-8.13,32.39,169.78,169.78,0,0,0-1.85,27c0,5.88.21,11.76.39,17.65.05,1.92,3.05,1.93,3,0-.29-9.72-.65-19.46-.15-29.18a160.66,160.66,0,0,1,4.12-28,195.12,195.12,0,0,1,5.52-19.08c.62-1.83-2.28-2.61-2.9-.79Z"/><path class="cls-25" d="M263.24,315.72a31.38,31.38,0,0,0-3.86,9.8,1.5,1.5,0,0,0,2.89.8,28.48,28.48,0,0,1,3.56-9.08,1.5,1.5,0,0,0-2.59-1.52Z"/><path class="cls-21" d="M487.11,263.85c-1.91,11.12-3.72,22.26-5.74,33.36-.83,4.57-1.8,9.28-4,13.43a74.91,74.91,0,0,1-6.55,10c-2.6,3.49-5.36,6.86-8.1,10.24-1.21,1.48.9,3.62,2.12,2.12,5.06-6.23,10.36-12.47,14.37-19.46a42.62,42.62,0,0,0,4.5-12.8c1.13-5.5,2-11.06,2.92-16.59L490,264.65c.33-1.89-2.56-2.7-2.89-.8Z"/><path class="cls-20" d="M237.6,264l-.08,0h.84l.26.11.56.56a1.31,1.31,0,0,1,.12.85c0-.2,0,.05-.06.11s-.35.33-.18.19l.28-.21c.38-.29.78-.57,1.18-.85.79-.55,1.61-1.07,2.44-1.57s1.64-.92,2.48-1.34c.43-.22.87-.43,1.31-.63l.7-.31.1,0,.4-.17a1.6,1.6,0,0,0,1.09-1.92,1.58,1.58,0,0,0-1.93-1.1,43.29,43.29,0,0,0-7,3.61c-.53.34-1,.7-1.56,1.06a12,12,0,0,0-1.62,1.22,2.52,2.52,0,0,0-.68,1.78,1.77,1.77,0,0,0,.83,1.47,2,2,0,0,0,1.39.19,1.57,1.57,0,0,0,1.1-1.93,1.62,1.62,0,0,0-1.93-1.1Z"/><path class="cls-17" d="M294.57,176.13a75.26,75.26,0,0,1-35.8-51.28,81.42,81.42,0,0,1-.14-30.45c2.05-11,6.61-21.19,11.34-31.23,5.46-11.57,11.2-23.19,13.69-35.83.37-1.88-2.52-2.69-2.89-.8-4.53,23-19.72,42.12-24.62,65-4.38,20.42-1,42.61,9.83,60.51a80.23,80.23,0,0,0,27.07,26.68,1.5,1.5,0,0,0,1.52-2.59Z"/><path class="cls-4" d="M228.16,349.78"/><path class="cls-27" d="M211.91,294.67s-29-64.16-34.83-11.21l9.06,24,8.36,15.48h0s1.37,41.27,26.05,39c1-.09,1.84-6.61,2.38-7.42,9.15-13.84.38-9,.38-9l10.76,17.79a2.9,2.9,0,0,1,.23.76,245.44,245.44,0,0,1,3,30.45c.22,6.3.2,12.3,0,17.95a47,47,0,0,0,8.15,28.26q2.38,3.5,5,7.09c8.59,11.91,20.3,26.36,32.82,36.47h0c15,21.22,24.37,33.5,35.2,33.86s27.34-1.14,27.34-1.14,31.5,5.5,40-5c7.19-8.89,47.89-56,60.24-70.23,2.38-2.75,1.64-5.69,2.26-9.27a196.9,196.9,0,0,0,2-33c-.07-2.93,3.08-6.39,2.69-9-2.69-18,8.37-42.12,8.37-42.12l2.52,11s11.77,13.4,29.09-20.26l17.33-33.65s17.43-39.12-4.27-42.07h0c-12.71,5.06-14.33,10.4-14.33,10.4l-2.42,17.16s-3.43,29.1-19.7,38.3c4.74-22.8,10-54.69,4.85-75.25s3.26-34.08,3.26-34.08-19.07-10.5-24.72-18-23.48-21.35-23.48-21.35-45.65,20.92-78.41,2.39c-12.76,3.48-37.28,3.7-49-3.91-8.74,1.39-38.9.89-38.9.89l-16.42,8-25.36,10.58s-15.26,13.37-8.17,82.63v0C212.31,294.42,211.91,294.67,211.91,294.67Z"/><path class="cls-7" d="M363.34,310.68s30.38-62.85,86-24.26c-2.42,10.85-18.22,46.78-59,23-27.78,3.94-26.5,1.77-26.5,1.77"/><path class="cls-8" d="M229.26,347.32s9.85,36.93,8,61,7.1,34.09,7.1,34.09l37,41c-7.65-8.76-22.41-50-26.2-103-2.8-13-13.79-23.82-13.79-23.82l-13-15.6Z"/><path class="cls-9" d="M324.29,309.8s-26.3-61.89-81.88-24.23c2.41,10.59,12.86,44.09,53.63,20.87l27.78,3.85"/><path class="cls-10" d="M307.81,440.92s-1.1,19,45.45,17c32.45,1,33.83-18.86,33.83-18.86l-13-.58s-16.28,9.57-26.28,7-33-5.56-33-5.56Z"/><path class="cls-10" d="M307.81,440.92s32.35-.34,39.42-2.92c11.08,1.42,39.86,1.06,39.86,1.06l-21.95-8s-9.79-2.58-18.81,1.91C341.31,431.42,327.31,428.42,307.81,440.92Z"/><path class="cls-11" d="M451.46,200.4s-4.15,22.63-4.65,32.82-2.11,32.13-3.5,35.2,21.26-16,33.13,8,2.69-76,2.69-76Z"/><path class="cls-12" d="M236.63,179.92c.32-4.49-20.32,4-20.32,4l-19,44.5s10,58,17.27,43.71,20.73-8.71,28.44-6.66c-5.29-7-1.71-20.05-1.58-32.59-5.86-16.54-5.13-39.46-5.42-39.32"/><path class="cls-13" d="M306.31,177.42l-73,163s-11.17,7-13-1,62.57-157.07,62.57-157.07l17.31-2.6"/><path class="cls-13" d="M274.63,336s-28.06,81.44-32.32,104.44c5.73,11,4.09,5.34,4.09,5.34s36.94-104.47,48.91-116.34A60.17,60.17,0,0,0,274.63,336"/><path class="cls-14" d="M300.19,179.75s-72.28,159.18-73.39,160.5c-4.59,5.43,3.32,8.82,6.29,5.77l58.25-14.73s-37,78.13-42,108.13c0,0,148-201,148.11-200.73l-52.19,43.83,54.58-106.68-34.15-23.45-59.64,11Z"/><path class="cls-28" d="M257.81,14.92c-.58-.41,11.33,23.77.42,37.63h0c-7.84-3.11-6.4-15.24-6.38-15.46h0c-.32.23-26.09,19.72-31.79,46.94-.74,4.36-1.07,12.09-1.08,12.19h0c-.08-.06-5.33-3.83-3-18.2,0,0,0,0,0,0-5.65,10.47-12.62,29.39-12.12,52.87h0c-4.38.48-10-18-10.3-19,0,0,0,0,0,0l-2,14.14h0s1.22,23.65,7,34c0,0,0,0,0,0l-6.12-7.6s0,0,0,0l2.23,12.48s5,38.07,2.05,53c-1,5.18-2,10.38-2.6,15.62-1.6,13.78-2.69,27.47-.51,31.12,2.82,4.72,9.82,30.7,9.83,30.73h0l11,20.95h0c-.09-1.22-2-26.1-1.92-70.61,0-11.53,2.06-41.14,9-47.25h0c6.94-1.1,25.34-10.56,25.36-10.58h0l21.92-5h0s16.44.14,30.54-3.19h0c6.11,2.67,33.17,12.69,49.13,2.18h0c10,3.49,48.3,20.49,79.13-2h0c15.83,12.49,37.82,32.48,47.32,39h0c-.5,7.5-1.37,23.29-1.37,23.31h0s9.38,62.7-3.84,86.93l0,0c11.72-10.82,23.59-33.8,23.14-60.26h0c9.1-5,13.54-12.21,12.54-19.85-.83-6.37-3.58-41.57.37-62.63a84.77,84.77,0,0,0-2.58-40.77c-4.29-13.86-9.34-26.45-9.35-26.47h0s-8.15-11.76-12.29-10.29h0c-.13-9.5.35-29.54-15.37-42,0,0,0,0,0,0l10.72-4s0,0,0,0c-.26-.37-13.26-18.34-38.25-11.45h0c-8.24-5.05,7.7-15.44,7.73-15.74s-19.6-6.6-31.78,3c0,0,0,0,0,0l1.81,1.64s-2.38-3-3.69-13.47h0c3.49-11.86,3.46-14.57,3.44-14.83h0L396.43,29.26h0c-.05,0-7.8,1.72-8-8a0,0,0,0,0,0,0C378.5,27.29,370.05,27,369.72,27c0,0,0,0,0,0L380.23,9.58s0,0,0,0c-1.3,1.24-26.29,24.84-40.41,24.36h0l5.26-15.5s0,0,0,0L315.37,38.76s0,0,0,0c-.1-.34-3.88-13.51-8.44-20.38A67.88,67.88,0,0,0,295.84,5.94s0,0,0,0c.4.93,8,19,6.26,25.62-1.77,6.85-8.71,1.31-11.74-8.42l-3-9.67s0,0,0,0L287.21,27h0c-.07.05-5,3.86-6.46-7.76,0,0,0,0,0,0l-7.92,21.59h0C272.71,39.88,270.91,24.14,257.81,14.92Z"/><path class="cls-17" d="M280.3,110.07a95.6,95.6,0,0,0,14.77,36.18,97.3,97.3,0,0,0,27.81,27.29,109,109,0,0,0,22.79,10.85c1.82.65,2.6-2.25.8-2.9a106.57,106.57,0,0,1-20-9.25,92.6,92.6,0,0,1-15.17-11.55,94.59,94.59,0,0,1-21.82-30.8,92.92,92.92,0,0,1-6.27-20.61c-.34-1.9-3.24-1.1-2.89.79Z"/><path class="cls-18" d="M248,550.24c-.31,18.1-1.1,36.2-2.52,54.24q-.57,7.34-1.3,14.65c-.19,1.92,2.81,1.9,3,0,1.75-17.64,2.83-35.35,3.42-53.07q.27-7.9.4-15.82c0-1.93-3-1.93-3,0Z"/><path class="cls-18" d="M312,530.44l5.35,51.08c.2,1.9,3.2,1.92,3,0L315,530.44c-.2-1.9-3.2-1.92-3,0Z"/><path class="cls-20" d="M443.08,539.24c7,20.21,21.21,36.75,37.27,50.45,18.37,15.67,38.74,29,59.06,41.95A301.59,301.59,0,0,0,575.7,651.9c1.75.8,3.27-1.78,1.52-2.59a270.67,270.67,0,0,1-31.93-17.48c-10.24-6.5-20.44-13.08-30.45-20-18.35-12.59-36.92-26-51.29-43.17A97,97,0,0,1,446,538.44c-.62-1.81-3.52-1-2.89.8Z"/><path class="cls-18" d="M388.63,699.67c18.84-14.19,43.2-15.51,65.78-17.83a794.5,794.5,0,0,0,82.41-13.37c15.56-3.28,31-6.85,46.51-10.53,1.88-.45,1.08-3.34-.8-2.89-27.5,6.54-55.1,12.76-83,17.53-13.84,2.37-27.75,4.39-41.72,5.9-11.72,1.27-23.52,2.09-35.13,4.25-12.67,2.36-25.19,6.52-35.58,14.35-1.52,1.14,0,3.75,1.51,2.59Z"/><path class="cls-18" d="M321.9,697.7c-.28-11.33-14.15-13.55-22.78-15.56-14.13-3.28-28.41-5.89-42.74-8.13-28.4-4.45-57-7.49-85.42-11.89-8.17-1.26-16.2-3.08-24.27-4.88s-16-3.58-24-5.33c-1.89-.41-2.69,2.48-.8,2.89,7.09,1.54,14.17,3.13,21.25,4.71l10.29,2.28c3.48.77,7,1.66,10.49,2.23,14.1,2.29,28.26,4.21,42.43,6.07,27.77,3.65,55.61,7.13,83,12.95,6.89,1.47,13.94,2.79,20.59,5.17,4.54,1.62,8.82,4.15,9,9.49,0,1.93,3,1.93,3,0Z"/><path class="cls-18" d="M489.09,700.13a292.16,292.16,0,0,1,36.54-6.63c1.89-.22,1.92-3.23,0-3a299,299,0,0,0-37.34,6.74c-1.87.46-1.08,3.36.8,2.89Z"/><path class="cls-18" d="M165.43,683l27.72,3.44c1.91.24,1.89-2.76,0-3L165.43,680c-1.91-.24-1.9,2.76,0,3Z"/><path class="cls-21" d="M419.41,181.26c-8.12,5.13-17.8,7.29-27.28,7.9a103.88,103.88,0,0,1-30.28-2.64,93.23,93.23,0,0,1-15.29-4.9c-1.75-.75-3.28,1.84-1.51,2.59a104.46,104.46,0,0,0,29.52,7.5c10.39,1.14,21.13.92,31.31-1.62a51.28,51.28,0,0,0,15-6.24c1.63-1,.13-3.62-1.51-2.59Z"/><path d="M456.9,339.85a193.15,193.15,0,0,0-8.13,32.39,169.78,169.78,0,0,0-1.85,27c0,5.88.21,11.76.39,17.65.05,1.92,3.05,1.93,3,0-.29-9.72-.65-19.46-.15-29.18a160.66,160.66,0,0,1,4.12-28,195.12,195.12,0,0,1,5.52-19.08c.62-1.83-2.28-2.61-2.9-.79Z"/><path class="cls-18" d="M381,259c12.67-7.61,29.93-8.37,43-1.43A46.6,46.6,0,0,1,437.75,269c1.24,1.48,3.35-.65,2.12-2.12-6.74-8-15.74-14-26.09-16.08a50.06,50.06,0,0,0-24.51,1.41,45,45,0,0,0-9.75,4.25A1.5,1.5,0,0,0,381,259Z"/><path class="cls-19" d="M358.45,286.86A53.81,53.81,0,0,1,381,259c1.65-1,.14-3.6-1.51-2.59a57,57,0,0,0-24,29.63c-.64,1.82,2.25,2.6,2.89.79Z"/><path class="cls-22" d="M326.13,325.92c.08,13.46,1.37,27.11-2.72,40.17-.57,1.85,2.32,2.64,2.9.8,4.16-13.32,2.9-27.24,2.82-41a1.5,1.5,0,0,0-3,0Z"/><path class="cls-23" d="M272.13,255.75c12.21-1.34,24.47,2.56,34.2,9.94A49.2,49.2,0,0,1,318.47,279a51.88,51.88,0,0,1,6.59,18.79,96.08,96.08,0,0,1,1.24,13.86c.1,4.75-.19,9.49-.17,14.24a1.5,1.5,0,0,0,3,0c0-4.35.24-8.69.19-13a105.18,105.18,0,0,0-.91-12.79c-1-7.23-2.73-14.33-6.29-20.75a53.47,53.47,0,0,0-28.75-24,48.26,48.26,0,0,0-21.24-2.57c-1.9.21-1.92,3.21,0,3Z"/><path class="cls-22" d="M349,356.1c-.14,2.71-.23,5.41-.27,8.12a1.5,1.5,0,0,0,3,0c0-2.71.13-5.41.27-8.12a1.5,1.5,0,0,0-3,0Z"/><path class="cls-22" d="M307.5,370.66c-1.56,6.73,1,15.55,8.83,16.66a1.54,1.54,0,0,0,1.84-1.05,1.5,1.5,0,0,0-1.05-1.84,7.62,7.62,0,0,1-5.9-4.24,13.25,13.25,0,0,1-.83-8.73c.44-1.88-2.45-2.68-2.89-.8Z"/><path class="cls-22" d="M363.4,371.14A10.16,10.16,0,0,1,358.86,385c-1.72.87-.21,3.46,1.52,2.59A13,13,0,0,0,366,369.62c-.91-1.7-3.5-.19-2.59,1.52Z"/><path class="cls-22" d="M317.3,380.4a12,12,0,0,1,11.26,6.33,1.5,1.5,0,0,0,2.6-1.51,15,15,0,0,0-13.86-7.82,1.5,1.5,0,0,0,0,3Z"/><path class="cls-22" d="M331,391.93c1.32,2.17,4,3,6.36,3.23a10.45,10.45,0,0,0,7-1.37c2.69-1.9,2.82-5.76,4.66-8.32a12.33,12.33,0,0,1,8.29-4.89,1.51,1.51,0,0,0,1.05-1.85,1.53,1.53,0,0,0-1.84-1A15,15,0,0,0,345.73,385a40,40,0,0,0-1.85,4.44,3.8,3.8,0,0,1-1.89,2.24,7.84,7.84,0,0,1-3.25.55c-1.62,0-4.22-.27-5.17-1.82s-3.6-.14-2.59,1.51Z"/><path class="cls-20" d="M379.68,283.54a52.19,52.19,0,0,1,42.39-4.86c1.85.59,2.64-2.31.8-2.89a55.19,55.19,0,0,0-44.7,5.16,1.5,1.5,0,0,0,1.51,2.59Z"/><path class="cls-18" d="M331.26,404.52a39.69,39.69,0,0,1,.08,16.21c-.38,1.88,2.51,2.69,2.9.79a43.52,43.52,0,0,0-.09-17.79c-.4-1.89-3.3-1.09-2.89.79Z"/><path class="cls-18" d="M349.91,460.51c5.88.8,11.35,3.44,17.18,4.47a28.35,28.35,0,0,0,20.15-4c1.62-1,.12-3.64-1.51-2.59A25.24,25.24,0,0,1,367,461.91c-5.48-1.17-10.71-3.53-16.29-4.29a1.57,1.57,0,0,0-1.85,1.05,1.5,1.5,0,0,0,1.05,1.84Z"/><path class="cls-18" d="M330.93,458.19c-10.93,3.71-23.39,6.45-34.31,1.19-1.73-.83-3.26,1.75-1.52,2.59,11.72,5.64,24.84,3.11,36.63-.89,1.82-.62,1-3.51-.8-2.89Z"/><path class="cls-20" d="M466.36,314.52c-3,12.38-7.59,24.84-16.08,34.58a83,83,0,0,1-8.42,8.14,54.39,54.39,0,0,0-6.82,6.58c-4.45,5.48-5.75,12.63-7,19.41-.34,1.89,2.55,2.7,2.9.8,1.08-6,2.2-12.89,5.94-17.77a48,48,0,0,1,6.63-6.5,91.06,91.06,0,0,0,8.36-8,62.75,62.75,0,0,0,8.71-12.6,104,104,0,0,0,8.65-23.88c.46-1.88-2.43-2.68-2.89-.8Z"/><path class="cls-22" d="M299,443.29c7.18-2.81,14.31-5.85,21.59-8.38a25.36,25.36,0,0,1,9.28-1.63c2.6.09,5.48.47,7.7,1.94,1.62,1.07,3.12-1.52,1.52-2.59-2.42-1.6-5.5-2.11-8.34-2.3a25.82,25.82,0,0,0-9.67,1.26c-3.75,1.18-7.38,2.75-11,4.18L298.2,440.4c-1.77.69-1,3.59.8,2.89Z"/><path class="cls-22" d="M340.56,435.21a21,21,0,0,1,10-2.51,43.29,43.29,0,0,1,9.84,1.6c6.26,1.56,12.71,3.45,18.37,6.62,1.69.94,3.2-1.65,1.51-2.59-6.08-3.41-13-5.46-19.78-7.09a41.85,41.85,0,0,0-10.71-1.53,24.24,24.24,0,0,0-10.72,2.91c-1.72.89-.2,3.48,1.51,2.59Z"/><path class="cls-22" d="M299.81,443.42c13.27-.56,26.68-.87,39.82-3,1.9-.3,1.09-3.19-.8-2.89-12.87,2.07-26,2.33-39,2.87-1.93.08-1.94,3.08,0,3Z"/><path class="cls-22" d="M340.81,440.42c12.74.95,25.54.07,38.28,1.14,1.92.17,1.91-2.83,0-3-12.74-1.07-25.54-.19-38.28-1.14-1.93-.15-1.92,2.85,0,3Z"/><path class="cls-22" d="M306.41,442.36c3.45.62,6.87,1.49,10.27,2.35a94.72,94.72,0,0,0,10,2.4c9.16,1.27,18.62.19,27.62-1.64a109.8,109.8,0,0,0,14.92-4.11c1.81-.64,1-3.54-.79-2.89a108.59,108.59,0,0,1-26.76,5.85,68.8,68.8,0,0,1-13.23,0,68.61,68.61,0,0,1-9.91-2.24c-3.74-1-7.5-1.93-11.31-2.61-1.88-.34-2.69,2.55-.79,2.89Z"/><path class="cls-22" d="M306.91,455.73a89.66,89.66,0,0,0,48.43,3.51,85.16,85.16,0,0,0,13.45-4c1.78-.69,1-3.59-.8-2.89a85.13,85.13,0,0,1-47.19,4.19,95.66,95.66,0,0,1-13.09-3.7c-1.82-.65-2.61,2.25-.8,2.89Z"/><path class="cls-21" d="M468.36,218.52c-2.11,12.09-1.71,24.14-.35,36.28.72,6.45,1.67,12.87,2,19.35a141.3,141.3,0,0,1-.2,19,132.41,132.41,0,0,1-3.48,21.4c-.47,1.87,2.43,2.67,2.89.8a138.24,138.24,0,0,0,3.94-37.85c-.41-12.47-2.91-24.76-3.33-37.23a101.78,101.78,0,0,1,1.39-20.92c.33-1.89-2.56-2.7-2.89-.8Z"/><path class="cls-20" d="M441,266.11c4-7.39,1.49-15.73.9-23.59-.68-9.11,2.27-17.8,4.28-26.56A58.29,58.29,0,0,0,448,200.4c-.09-1.92-3.09-1.93-3,0,.39,9-2.54,17.59-4.49,26.27a59.1,59.1,0,0,0-1.68,13c0,4.05.75,8,1.18,12.05.46,4.38.59,8.94-1.56,12.92-.92,1.7,1.67,3.21,2.59,1.51Z"/><path class="cls-20" d="M237.86,263.56c-3.87-7.79-.8-17.12-.42-25.33.43-9.57-2.33-18.88-4.34-28.14a59.68,59.68,0,0,1-1.73-15.17c.09-2-3.05-2-3.13,0-.39,9.51,2.61,18.7,4.51,27.92a63.46,63.46,0,0,1,1.58,14.72c-.14,4.46-.94,8.86-1.29,13.3-.38,4.89-.11,9.82,2.11,14.28.9,1.81,3.6.23,2.71-1.58Z"/><path class="cls-21" d="M500.47,186.24c-1.25,11.32-2.79,22.65-3.66,34a82,82,0,0,0,.5,16.42c.64,5.15,1.52,10.31,1.68,15.51a15.81,15.81,0,0,1-.56,5.22,31.48,31.48,0,0,1-2.87,5.93c-.94,1.68,1.65,3.2,2.59,1.51,1.81-3.22,3.53-6.42,3.8-10.17.35-4.86-.56-9.87-1.2-14.67a93.75,93.75,0,0,1-1.12-16.82c.26-5.73,1-11.45,1.66-17.16l2.18-19.77c.21-1.91-2.79-1.9-3,0Z"/><path d="M407.57,326.19a29.85,29.85,0,0,0,14.66-3.79c1.68-.94.17-3.54-1.52-2.59a26.74,26.74,0,0,1-13.14,3.38,1.5,1.5,0,0,0,0,3Z"/><path class="cls-20" d="M454.48,351.78c.4,3.43,1.52,7,4.08,9.4a10.69,10.69,0,0,0,10,2.42c7.7-1.8,13-9,16.62-15.54a121.5,121.5,0,0,0,6.29-13.49c.72-1.79-2.18-2.57-2.89-.8a114.91,114.91,0,0,1-6.19,13.14A37.17,37.17,0,0,1,474.67,357c-2.94,2.57-7.21,4.87-11.23,3.69-3.8-1.11-5.53-5.27-6-8.89-.22-1.89-3.23-1.92-3,0Z"/><path class="cls-22" d="M463.44,330.84a.91.91,0,0,1-.16.8c-.92,1.49,1.13,2.95,2.35,1.82a22,22,0,0,1,4.91-3.43c1.69-.87,3.81-1.84,5.75-1.31,2.92.8,3.92,4.64,4.59,7.18a1.51,1.51,0,0,0,2.9-.8c-1-3.68-2.61-8.13-6.69-9.28-2.52-.7-5.11.21-7.38,1.28a24.8,24.8,0,0,0-6.2,4.24l2.36,1.81a4,4,0,0,0,.47-3.11c-.45-1.87-3.34-1.08-2.9.8Z"/><path class="cls-22" d="M487.75,285c2.42-2.57,5.85-6.29,9.81-5.43,3.4.73,5.59,4.31,5.92,7.59a1.54,1.54,0,0,0,1.5,1.5,1.51,1.51,0,0,0,1.5-1.5c-.45-4.51-3.24-9.25-7.88-10.43-5.27-1.34-9.65,2.61-13,6.15-1.33,1.4.79,3.53,2.12,2.12Z"/><path class="cls-20" d="M489,272.09l5.72-4.41c1.66-1.29,3.17-3,5.4-2.9,3.41.16,7.92.66,10,3.74,2.43,3.61,1.85,8.68,1,12.69a81.23,81.23,0,0,1-4,13.06c-.7,1.8,2.2,2.58,2.89.8a85.36,85.36,0,0,0,3.7-11.9c.9-3.93,1.46-8,.6-12a10.53,10.53,0,0,0-6.21-7.83,19.17,19.17,0,0,0-4.84-1.2,14.4,14.4,0,0,0-5.31-.18c-2,.51-3.79,2.37-5.41,3.61L486.92,270a1.51,1.51,0,0,0,0,2.12,1.53,1.53,0,0,0,2.12,0Z"/><path d="M484,301.94a31.06,31.06,0,0,0,11.49-7,1.5,1.5,0,0,0-2.12-2.12,27.8,27.8,0,0,1-10.17,6.26,1.54,1.54,0,0,0-1,1.85,1.5,1.5,0,0,0,1.84,1Z"/><path class="cls-18" d="M481.18,315l-.08-.05a1.56,1.56,0,0,0-1.82.23,1.7,1.7,0,0,0,.47,2.81c1.25.53,2.1-.51,2.67-1.46a27,27,0,0,1,3.42-4.73c2.65-2.88,6.21-5,10.22-4.72,1.93.12,1.92-2.88,0-3a14.91,14.91,0,0,0-10,3.44,21.25,21.25,0,0,0-3.61,3.67c-.57.73-1.11,1.47-1.62,2.25-.22.33-.43.67-.64,1-.12.18-.23.37-.34.56s-.53.56-.1.3l.76-.2h-.17l1.06.43-.09-.07.44,1.06,0,.16-.38.67.07-.07-1.81.24.08.05c1.69.94,3.2-1.65,1.51-2.59Z"/><path class="cls-20" d="M490.87,336.38c5.31-15.76,16.21-29,20.83-45.06a1.5,1.5,0,0,0-2.89-.8c-4.62,16-15.52,29.3-20.83,45.06-.62,1.84,2.28,2.62,2.89.8Z"/><path class="cls-18" d="M383.56,257.21c11.78-7.07,27-5.89,38.84.24a61,61,0,0,1,13.85,10c1.4,1.32,3.52-.79,2.12-2.12-7.18-6.81-15.76-12.29-25.44-14.67a43.56,43.56,0,0,0-21.9.15,36.19,36.19,0,0,0-9,3.78,1.5,1.5,0,0,0,1.51,2.59Z"/><path class="cls-20" d="M466.36,314.52c-2.79,11.37-6.83,22.81-14.09,32.16-4.17,5.39-9.48,9.44-14.38,14.1a26,26,0,0,0-5.64,7.33c-.83,1.73,1.76,3.26,2.59,1.52,2.44-5.05,7.16-8.45,11.38-12.23a65.54,65.54,0,0,0,15.44-20.29,108.22,108.22,0,0,0,7.59-21.79c.46-1.88-2.43-2.68-2.89-.8Z"/><path class="cls-18" d="M407.57,326.19a29.85,29.85,0,0,0,14.66-3.79c1.68-.94.17-3.54-1.52-2.59a26.74,26.74,0,0,1-13.14,3.38,1.5,1.5,0,0,0,0,3Z"/><path d="M297.46,281a55.19,55.19,0,0,0-44.7-5.16c-1.84.58-1,3.48.79,2.89a52.21,52.21,0,0,1,42.4,4.86,1.5,1.5,0,0,0,1.51-2.59Z"/><path class="cls-23" d="M304.07,310.41a3,3,0,0,1,.17.36c-.12-.3,0,.14.06.2a5,5,0,0,1,.2.78l0,.19h0c0,.14,0,.27,0,.4s0,.54,0,.8.05-.22,0,.14c0,.13-.05.26-.08.39a6.75,6.75,0,0,1-.25.76c.11-.29,0,.07-.06.13a3.9,3.9,0,0,1-.19.35l-.21.34a1.77,1.77,0,0,1-.16.22c.09-.11.1-.13,0-.05s-.34.38-.53.56c0,0-.33.28-.19.17s-.23.16-.27.18a6.38,6.38,0,0,1-.67.38c-.07,0-.42.18-.11.06l-.37.14a6.17,6.17,0,0,1-.74.19c-.13,0-.38.07-.11,0l-.39,0a6.62,6.62,0,0,1-.77,0l-.25,0h.08l-.45-.09A1.5,1.5,0,1,0,298,320a7.67,7.67,0,0,0,8.65-11.06,1.51,1.51,0,0,0-2.05-.54,1.54,1.54,0,0,0-.54,2.06Z"/><path d="M268.06,323.19a26.71,26.71,0,0,1-13.14-3.38c-1.69-.94-3.21,1.65-1.52,2.59a29.83,29.83,0,0,0,14.66,3.79,1.5,1.5,0,0,0,0-3Z"/><path class="cls-23" d="M297.46,281a55.19,55.19,0,0,0-44.7-5.16c-1.84.58-1,3.48.79,2.89a52.21,52.21,0,0,1,42.4,4.86,1.5,1.5,0,0,0,1.51-2.59Z"/><path class="cls-23" d="M268.06,323.19a26.71,26.71,0,0,1-13.14-3.38c-1.69-.94-3.21,1.65-1.52,2.59a29.83,29.83,0,0,0,14.66,3.79,1.5,1.5,0,0,0,0-3Z"/><path class="cls-20" d="M474.89,360.62c8.36-6.27,12.82-16.62,16.62-26.05.72-1.79-2.18-2.57-2.89-.8a111.15,111.15,0,0,1-6.5,13.68A34,34,0,0,1,473.38,358c-1.53,1.15,0,3.75,1.51,2.59Z"/><path class="cls-18" d="M471.84,329.41a7.65,7.65,0,0,1,4.05-.79,3.89,3.89,0,0,1,.49.12c.05,0,.43.15.29.09s.17.08.2.1l.36.2.35.22c.34.23-.17-.18.12.11a8.07,8.07,0,0,1,.59.58c.1.1.19.21.28.32-.16-.2.07.1.1.15a7.65,7.65,0,0,1,.43.67c.14.23.27.47.39.71s.13.26.19.4.19.42.09.19a24,24,0,0,1,1.11,3.42,1.5,1.5,0,0,0,2.9-.8c-.7-2.62-1.62-5.4-3.55-7.39a7.06,7.06,0,0,0-3.64-2,9.92,9.92,0,0,0-5.55.81,1.55,1.55,0,0,0-1.05,1.84,1.51,1.51,0,0,0,1.85,1.05Z"/><path class="cls-18" d="M484,301.94a31.06,31.06,0,0,0,11.49-7,1.5,1.5,0,0,0-2.12-2.12,27.8,27.8,0,0,1-10.17,6.26,1.54,1.54,0,0,0-1,1.85,1.5,1.5,0,0,0,1.84,1Z"/><path class="cls-22" d="M488.06,309.71c-.11.07-.09.06.06,0l.25-.18.5-.35c.3-.2.61-.39.92-.56s.73-.39,1.1-.56l.28-.13c-.12.06-.1.05.07,0l.5-.19a12.89,12.89,0,0,1,2.22-.56h0l.31,0,.6,0a9.9,9.9,0,0,1,1.22,0,1.5,1.5,0,0,0,1.5-1.5,1.53,1.53,0,0,0-1.5-1.5,15,15,0,0,0-10.12,3.52,1.5,1.5,0,0,0,0,2.13,1.56,1.56,0,0,0,2.12,0Z"/><path class="cls-20" d="M210.18,320.44c2.22,9.33,6.93,17.7,12.78,25.23a142.81,142.81,0,0,0,9.52,10.9c1.66,1.75,3.35,3.47,5,5.18a32.54,32.54,0,0,1,4.76,5.4,30.61,30.61,0,0,1,4.36,15c.09,1.92,3.09,1.93,3,0a35.67,35.67,0,0,0-3.3-13.86,22.64,22.64,0,0,0-3.77-5.71c-1.72-1.79-3.51-3.51-5.25-5.29-6.75-6.9-13.33-14.12-18.18-22.53a56.49,56.49,0,0,1-6.07-15.1c-.45-1.88-3.34-1.08-2.89.8Z"/><path class="cls-20" d="M340.81,518.42c7,.62,14,1.41,21,2,1.92.16,1.91-2.84,0-3-7-.59-14-1.38-21-2-1.93-.17-1.91,2.83,0,3Z"/><path class="cls-20" d="M340.81,515.42c-4.56.39-9.13.59-13.69.84a1.53,1.53,0,0,0-1.5,1.5,1.51,1.51,0,0,0,1.5,1.5c4.56-.25,9.13-.45,13.69-.84a1.54,1.54,0,0,0,1.5-1.5,1.51,1.51,0,0,0-1.5-1.5Z"/><path class="cls-20" d="M221.66,351.78c-.58,4.87-3.78,9.69-9.21,9.13-5.85-.6-10.32-5.65-13.42-10.21-1.07-1.59-3.67-.09-2.59,1.51,3.83,5.65,9.43,11.55,16.74,11.75,6.86.18,10.75-6.06,11.48-12.18.23-1.91-2.77-1.9-3,0Z"/><path class="cls-20" d="M219.35,340.64a194.11,194.11,0,0,1,8.07,32,163.53,163.53,0,0,1,1.8,26.62c0,5.88-.21,11.76-.38,17.65-.06,1.93,2.94,1.93,3,0,.29-9.84.66-19.7.13-29.54a165.8,165.8,0,0,0-4.22-28.46,194.08,194.08,0,0,0-5.51-19.07c-.62-1.82-3.52-1-2.89.79Z"/><path class="cls-20" d="M290,497.89c-10.76-14.63-23.9-27.2-36.16-40.54-3.59-3.91-7.1-7.88-10.48-12-1.23-1.49-3.34.65-2.12,2.13,11.53,14,24.75,26.39,36.63,40.05,3.33,3.83,6.53,7.77,9.54,11.86,1.13,1.54,3.74,0,2.59-1.52Z"/><path class="cls-20" d="M211,323.76c2.69,14.58,13.41,25.15,23.35,35.33,3,3,5.9,6.11,8.65,9.34,1.26,1.47,3.37-.66,2.13-2.12-9.1-10.66-20.84-19.61-27.42-32.23A39.75,39.75,0,0,1,213.92,323c-.35-1.9-3.24-1.1-2.89.79Z"/><path class="cls-20" d="M287.51,499.67c4.16,5.46,8.31,11.46,14,15.43a20.76,20.76,0,0,0,7,2.83,59.33,59.33,0,0,0,9.18,1.39,55.06,55.06,0,0,0,9.08.1c1.91-.17,1.92-3.17,0-3a57,57,0,0,1-15.85-1,23.26,23.26,0,0,1-7-2.31,29,29,0,0,1-6.72-6.07c-2.52-2.83-4.8-5.85-7.09-8.85-1.15-1.52-3.76,0-2.59,1.51Z"/><path class="cls-20" d="M384.75,504.86c-3.09,3.52-5.7,7.74-9.88,10.08-3.95,2.22-8.64,2.46-13.06,2.48a1.5,1.5,0,0,0,0,3c4.87,0,9.95-.39,14.32-2.75,4.58-2.47,7.4-6.88,10.74-10.69,1.26-1.45-.85-3.58-2.12-2.12Z"/><path class="cls-21" d="M427.05,185.21c3.77,1.85,7,4.71,10.16,7.41a104.6,104.6,0,0,1,9.79,8.91c6.15,6.75,11.53,14.46,20.25,18.09,4.54,1.9,9.66,2.47,14.3.59,1.76-.71,1-3.62-.8-2.89-8.36,3.39-17-2-22.69-7.83-3.19-3.26-6-6.88-9.09-10.24a100.26,100.26,0,0,0-9.34-8.5c-3.45-2.94-7-6.12-11.07-8.13-1.72-.85-3.25,1.74-1.51,2.59Z"/><path class="cls-17" d="M426.56,182.62A39.92,39.92,0,0,1,415,171.21a61.12,61.12,0,0,1-7-17.06,91.27,91.27,0,0,1-1.54-39.09c2-11.3,5.46-23,12.8-32.09a47.53,47.53,0,0,1,21.9-14.9c9.21-3.1,19-3.91,28.68-3.65,1.93,0,1.93-3,0-3-18.29-.5-37.89,3.22-50.81,17.24-8.08,8.78-12.24,20.2-14.71,31.7a96.47,96.47,0,0,0-.19,40.53,70.23,70.23,0,0,0,7.51,20.59,43.08,43.08,0,0,0,13.44,13.73c1.6,1.09,3.11-1.51,1.51-2.59Z"/><path class="cls-17" d="M427.44,182.46c-12.51-.66-23.67-8.37-30.63-18.5s-10.57-22.8-11.53-35.11c-1.74-22.25,5.08-44.8,18.1-62.84a89.27,89.27,0,0,1,27.33-24.94,1.5,1.5,0,0,0-1.52-2.59C409,50.25,394.07,69.89,386.84,92a95.76,95.76,0,0,0-4.72,34.34c.62,12.59,3.75,25.46,10.29,36.32,7.48,12.42,20.2,22,35,22.8,1.93.1,1.93-2.9,0-3Z"/><path class="cls-17" d="M330.59,131.54a80.66,80.66,0,0,1,.34-53c5.64-15.38,16.22-28.58,28.45-39.27a123.11,123.11,0,0,1,24.83-16.78c1.72-.88.21-3.47-1.51-2.59a122.94,122.94,0,0,0-40.85,33.44,92.55,92.55,0,0,0-12.7,21.55,79.39,79.39,0,0,0-5.77,26.16,85.55,85.55,0,0,0,4.31,31.27c.61,1.82,3.51,1,2.9-.8Z"/><path class="cls-17" d="M423,182.05c-21.25,5.17-44,.55-62.18-11.38a82.22,82.22,0,0,1-14-11.6c-1.34-1.39-3.46.74-2.12,2.13a85.41,85.41,0,0,0,60,26A78.35,78.35,0,0,0,423.8,185c1.87-.46,1.08-3.35-.8-2.9Z"/><path class="cls-17" d="M419.81,182.42c-13.19-.08-25.81-5.1-36.29-13a74.59,74.59,0,0,1-24.2-31.32c-5.75-14.22-6.3-30-3.07-44.87,3.31-15.33,10.41-29.45,19.59-42.09S396,27.57,407.54,17.25q2.16-1.92,4.34-3.82c1.46-1.27-.67-3.39-2.12-2.12-12.06,10.5-23.66,21.63-33.47,34.3S358.54,72.5,354.41,88.09c-4.07,15.32-4.51,31.87.59,47A77.25,77.25,0,0,0,378.12,169c10.34,8.8,23,14.92,36.64,16.22,1.67.16,3.36.24,5.05.25a1.5,1.5,0,0,0,0-3Z"/><path class="cls-17" d="M298.27,41.22C302,28.66,296.42,16,291.18,4.72c-.82-1.75-3.4-.23-2.59,1.51,4.89,10.48,10.26,22.47,6.79,34.19-.55,1.86,2.35,2.65,2.89.8Z"/><path class="cls-21" d="M290.05,7.21a39,39,0,0,1,14.56,24c.33,1.9,3.22,1.1,2.89-.79A41.9,41.9,0,0,0,291.56,4.62c-1.55-1.15-3,1.45-1.51,2.59Z"/><path class="cls-21" d="M239.69,189c4-.42,8-1,12-1.63a57.55,57.55,0,0,0,11.61-2.68c1.78-.69,1-3.6-.79-2.89a56.71,56.71,0,0,1-11.3,2.62c-3.82.64-7.66,1.18-11.51,1.58-1.9.2-1.92,3.2,0,3Z"/><path class="cls-17" d="M184.71,113.16c.15,15.25.56,31,6.44,45.32a54.82,54.82,0,0,0,10.54,16.85,43.27,43.27,0,0,0,16.87,11.06A52.65,52.65,0,0,0,241.69,189c1.9-.19,1.92-3.19,0-3-13.24,1.33-27-2-36.64-11.54S191,151.9,189.14,138.9a195.79,195.79,0,0,1-1.43-25.74,1.5,1.5,0,0,0-3,0Z"/><path class="cls-17" d="M246.09,35.79c-19.6,12.85-30.86,35.86-35,58.38-4.24,23.16-.9,49,14.55,67.61a64.38,64.38,0,0,0,32.09,20.68,1.5,1.5,0,0,0,.79-2.89,61.41,61.41,0,0,1-28.15-17c-7.75-8.19-12.85-18.54-15.57-29.43-5.52-22.13-1.53-46.6,8.75-66.78,5.65-11.08,13.56-21.13,24-28,1.61-1.06.11-3.65-1.51-2.59Z"/><path class="cls-21" d="M251,15.75a34.16,34.16,0,0,1,.91,36.05,1.5,1.5,0,0,0,2.59,1.51,37.14,37.14,0,0,0-.91-39.07c-1.06-1.6-3.66-.1-2.59,1.51Z"/><path class="cls-17" d="M425.25,183.52a52.7,52.7,0,0,1,9-37.16,59.41,59.41,0,0,1,31.6-23.28,58.26,58.26,0,0,1,22.31-2.28c1.92.17,1.91-2.83,0-3A61.73,61.73,0,0,0,423.94,161a55.22,55.22,0,0,0-1.58,23.33c.26,1.9,3.15,1.09,2.89-.8Z"/><path class="cls-21" d="M476,110.36a16,16,0,0,1,11.25,9.23,1.56,1.56,0,0,0,1.85,1,1.53,1.53,0,0,0,1.05-1.85,19.07,19.07,0,0,0-13.35-11.33,1.5,1.5,0,0,0-.8,2.9Z"/><path class="cls-21" d="M455.77,73a22.3,22.3,0,0,1,15.7-7.47c1.92-.07,1.93-3.07,0-3a25.29,25.29,0,0,0-17.82,8.35c-1.28,1.44.83,3.56,2.12,2.12Z"/><path class="cls-21" d="M465.46,74.1A43.82,43.82,0,0,1,475,99.44c.09,1.92,3.09,1.93,3,0A47.32,47.32,0,0,0,467.59,72c-1.21-1.5-3.33.63-2.13,2.13Z"/><path class="cls-21" d="M490.06,126.81c3.59,8.49,7.53,16.94,10.08,25.82,2.42,8.42,3.4,17.33.25,25.69-.69,1.81,2.21,2.59,2.89.8,3.27-8.68,2.35-18.09-.12-26.85-2.61-9.28-6.76-18.11-10.51-27a1.5,1.5,0,1,0-2.59,1.51Z"/><path class="cls-21" d="M187,113.52,193.17,132c.6,1.83,3.5,1.05,2.89-.79l-6.13-18.53c-.6-1.83-3.5-1-2.89.8Z"/><path class="cls-21" d="M200.46,127.36a95,95,0,0,1,2.29-26.63c1.83-7.85,4.71-15.47,9.5-22,1.14-1.56-1.46-3.06-2.59-1.52-4.93,6.73-7.92,14.66-9.8,22.73a98.05,98.05,0,0,0-2.4,27.43c.1,1.92,3.1,1.93,3,0Z"/><path class="cls-21" d="M252.05,16.21c8.88,5.84,15,16.65,14.12,27.39-.16,1.93,2.84,1.92,3,0,.95-11.8-5.89-23.6-15.61-30-1.62-1.06-3.12,1.53-1.51,2.59Z"/><path class="cls-21" d="M269.1,43.67a159.83,159.83,0,0,0,8.1-24.1c.48-1.88-2.42-2.67-2.9-.8a155.37,155.37,0,0,1-7.79,23.39c-.76,1.75,1.82,3.28,2.59,1.51Z"/><path class="cls-21" d="M334.81,34.42c17.1-1,30.42-13.46,41.53-25.29,1.32-1.41-.8-3.53-2.12-2.12-10.5,11.18-23.19,23.5-39.41,24.41-1.92.1-1.94,3.1,0,3Z"/><path class="cls-21" d="M365.77,28a44.75,44.75,0,0,0,12.71-26.6c.21-1.91-2.79-1.9-3,0a41.54,41.54,0,0,1-11.83,24.48A1.5,1.5,0,0,0,365.77,28Z"/><path class="cls-21" d="M203.26,190.59c1.27,7,9.15,10.1,15.52,9.23,4.13-.56,7.94-2.34,11.61-4.24,4.05-2.09,8.07-4.23,12.1-6.35,1.71-.9.19-3.49-1.52-2.59l-10.7,5.62a43.67,43.67,0,0,1-10.14,4.28c-5.38,1.27-12.83-.42-14-6.75-.35-1.9-3.24-1.09-2.9.8Z"/><path class="cls-17" d="M424.08,182c6.32,2.22,12.63,4.5,19,6.63,6,2,12.19,3.75,18.56,4a41.35,41.35,0,0,0,27.5-9.87,39.57,39.57,0,0,0,10.31-13.28c.82-1.73-1.77-3.25-2.59-1.51a38.4,38.4,0,0,1-20.52,19,37.18,37.18,0,0,1-13.78,2.64c-5.94,0-11.74-1.58-17.34-3.41-6.82-2.22-13.56-4.7-20.33-7.07-1.82-.64-2.61,2.26-.79,2.89Z"/><path class="cls-17" d="M426.2,185.36c11.32-2.19,22-7.19,31.6-13.52a111.35,111.35,0,0,0,26.2-24,86.76,86.76,0,0,0,10.22-16.21c.83-1.73-1.76-3.26-2.59-1.51A93,93,0,0,1,471.58,157a106.3,106.3,0,0,1-28.76,19.74,76.32,76.32,0,0,1-17.41,5.69c-1.9.37-1.09,3.26.79,2.89Z"/><path class="cls-17" d="M427.25,184.32c2.06-7.68,6.62-14.49,11.9-20.34a83.18,83.18,0,0,1,17.71-14.85,52.69,52.69,0,0,1,9.34-4.77c1.8-.66,1-3.57-.79-2.89-6.69,2.49-12.77,6.52-18.32,10.95A77,77,0,0,0,430,171a45.5,45.5,0,0,0-5.65,12.53,1.5,1.5,0,0,0,2.89.8Z"/><path class="cls-17" d="M448.41,142.45a38.93,38.93,0,0,1,17.36,2c1.83.64,2.61-2.26.8-2.9a41.18,41.18,0,0,0-18.16-2.05,1.54,1.54,0,0,0-1.5,1.5,1.51,1.51,0,0,0,1.5,1.5Z"/><path class="cls-17" d="M280.05,96.22c1.68-21,12.58-40.9,28.77-54.33a76,76,0,0,1,14.92-9.66c1.73-.86.21-3.45-1.52-2.59A83.37,83.37,0,0,0,280.69,78a78.55,78.55,0,0,0-3.64,18.2c-.15,1.93,2.85,1.92,3,0Z"/><path class="cls-21" d="M324.56,31.75a33.29,33.29,0,0,0,18-19.23c.66-1.82-2.24-2.6-2.89-.8a30.41,30.41,0,0,1-16.59,17.44,1.5,1.5,0,0,0-.54,2.05,1.54,1.54,0,0,0,2.05.54Z"/><path class="cls-21" d="M335.1,34.67c3.38-7,6.63-14.51,8-22.24.34-1.89-2.55-2.7-2.89-.8-1.35,7.49-4.46,14.7-7.73,21.53-.83,1.73,1.76,3.26,2.59,1.51Z"/><path class="cls-21" d="M410.24,40.06a32.65,32.65,0,0,1,30.64-2.89,1.52,1.52,0,0,0,1.84-1.05,1.54,1.54,0,0,0-1-1.85,35.44,35.44,0,0,0-32.95,3.2c-1.6,1.07-.1,3.67,1.51,2.59Z"/><path class="cls-21" d="M405.47,32.33a38.8,38.8,0,0,0,7.09-20.24c.12-1.92-2.88-1.92-3,0a35.92,35.92,0,0,1-6.68,18.72,1.5,1.5,0,1,0,2.59,1.52Z"/><path class="cls-21" d="M430,55a30,30,0,0,1,24.5-3.3A32.28,32.28,0,0,1,464,55.9a20.82,20.82,0,0,1,6.53,7.77c.88,1.72,3.47.21,2.59-1.51a24.48,24.48,0,0,0-12.8-11.6A36,36,0,0,0,440,48a32.22,32.22,0,0,0-11.45,4.46c-1.62,1-.12,3.63,1.52,2.59Z"/><path class="cls-17" d="M424.53,175.44a72.92,72.92,0,0,1-1.75-41.91A72.37,72.37,0,0,1,458.2,88.38c1.7-.93.19-3.52-1.51-2.59a75.9,75.9,0,0,0-28,26.42,75.22,75.22,0,0,0-7.07,64c.63,1.81,3.53,1,2.9-.8Z"/><path class="cls-21" d="M207.36,276.52c-1.82,10.37-1.11,21,.76,31.28.35,1.9,3.24,1.1,2.89-.79-1.77-9.75-2.48-19.89-.76-29.69.33-1.89-2.56-2.7-2.89-.8Z"/><path class="cls-22" d="M181,281.09a1.89,1.89,0,0,1,2.57-1.28,8,8,0,0,1,3.28,2.52c2.1,2.24,4.17,4.52,6.12,6.9a46.47,46.47,0,0,1,8.36,15.09c.6,1.82,3.49,1,2.89-.8a52.47,52.47,0,0,0-10.57-18.13c-1.2-1.39-2.44-2.75-3.68-4.11a18.35,18.35,0,0,0-4-3.68c-2.71-1.57-7.24-1-7.82,2.7-.3,1.89,2.59,2.7,2.89.79Z"/><path class="cls-22" d="M205.6,343.71c-2.74-3.3-1-8.31.3-11.83,1.64-4.45,3.2-9.3.94-13.83-.86-1.72-3.45-.21-2.59,1.52,2.26,4.52-.81,9.7-2.11,14-1.24,4.13-1.58,8.72,1.33,12.22,1.24,1.49,3.35-.65,2.13-2.12Z"/><path class="cls-22" d="M193.74,302.89a8.43,8.43,0,0,1-1.64,1c.35-.16-.12.05-.19.07a4,4,0,0,1-.45.15,7.89,7.89,0,0,1-.93.23l-.24,0c.2,0,.22,0,0,0l-.47,0a7.69,7.69,0,0,1-1,0,2.5,2.5,0,0,1-.47-.05c.39.11-.11,0-.19,0-.32-.06-.62-.15-.93-.24a1.5,1.5,0,0,0-1.84,1.05,1.52,1.52,0,0,0,1,1.84,9.87,9.87,0,0,0,8.75-1.47,1.72,1.72,0,0,0,.69-.9,1.54,1.54,0,0,0-.16-1.15,1.51,1.51,0,0,0-2-.54Z"/><path class="cls-22" d="M190.55,316.92a18.93,18.93,0,0,0,7.39-4.36,1.51,1.51,0,0,0,0-2.12,1.53,1.53,0,0,0-2.12,0c-.23.22-.47.43-.71.64l-.34.29c-.07.05-.15.15-.22.17s.18-.14,0,0a19.09,19.09,0,0,1-1.59,1.06,16,16,0,0,1-1.65.85,1.13,1.13,0,0,1-.25.12s.25-.11,0,0l-.42.16-1,.34a1.5,1.5,0,0,0,.79,2.89Z"/><path class="cls-20" d="M93.35,649.25C53.26,659.56,10.6,683.05.19,726.48c-.72,3,.71,3.89,2.62,6,2.86,3.13,5.83,6.17,8.85,9.16A410.68,410.68,0,0,0,47.56,773,492.77,492.77,0,0,0,407.93,873.41a511.9,511.9,0,0,0,72.26-14.1A467.62,467.62,0,0,0,676.87,749.94q12.95-12,25-25c1.31-1.41-.8-3.54-2.12-2.12a479.24,479.24,0,0,1-92,76.85,464.64,464.64,0,0,1-88.9,44.08,487.67,487.67,0,0,1-150.2,29.57,498.6,498.6,0,0,1-105.09-7.14,482.64,482.64,0,0,1-88.23-24.41A488.46,488.46,0,0,1,51.66,772.45a420.47,420.47,0,0,1-34-29.22c-3.33-3.2-6.61-6.46-9.8-9.81-1.62-1.7-3.12-3.78-4.9-5.32a6.39,6.39,0,0,1-.59-.68l.39,1.46c9.69-43.32,51.62-66.5,91.43-76.73,1.87-.48,1.08-3.38-.8-2.9Z"/><path class="cls-21" d="M187.07,261a150.37,150.37,0,0,0,16.11,47q3.4,6.3,7.41,12.24a1.5,1.5,0,0,0,2.74-1.15l-2.55-14.9c-.32-1.9-3.21-1.09-2.89.8l2.55,14.9,2.74-1.16A147.83,147.83,0,0,1,192.9,274c-1.2-4.55-2.17-9.15-2.94-13.78-.31-1.9-3.2-1.1-2.89.79Z"/><path class="cls-21" d="M487.11,263.85c-1.91,11.12-3.72,22.26-5.74,33.36-.83,4.57-1.8,9.28-4,13.43a74.91,74.91,0,0,1-6.55,10c-2.6,3.49-5.36,6.86-8.1,10.24-1.21,1.48.9,3.62,2.12,2.12,5.06-6.23,10.36-12.47,14.37-19.46a42.62,42.62,0,0,0,4.5-12.8c1.13-5.5,2-11.06,2.92-16.59L490,264.65c.33-1.89-2.56-2.7-2.89-.8Z"/><path class="cls-19" d="M369,308.89A7.67,7.67,0,0,0,377.62,320a1.5,1.5,0,1,0-.8-2.89l-.37.08c-.3.06.21,0-.18,0a6.6,6.6,0,0,1-.77,0l-.45,0c.27,0,0,0-.11,0a6.87,6.87,0,0,1-.75-.19l-.36-.14c.31.12-.07,0-.11-.06a5.51,5.51,0,0,1-.67-.38l-.32-.22c.26.19,0,0-.09-.09-.21-.19-.39-.4-.58-.6s-.06-.06,0,.05l-.12-.16c-.08-.11-.15-.23-.22-.34a3.9,3.9,0,0,1-.19-.35c0-.06-.21-.49-.1-.19-.09-.25-.17-.5-.24-.76s-.06-.26-.08-.39c-.1-.42,0,.29,0-.14,0-.26,0-.53,0-.8s0-.26,0-.4c0-.35-.05.19,0-.13a7.31,7.31,0,0,1,.18-.78,2.18,2.18,0,0,0,.11-.32c-.06.15.13-.26.15-.3a1.5,1.5,0,1,0-2.59-1.52Z"/><path class="cls-20" d="M379.68,283.54a52.19,52.19,0,0,1,42.39-4.86c1.85.59,2.64-2.31.8-2.89a55.19,55.19,0,0,0-44.7,5.16,1.5,1.5,0,0,0,1.51,2.59Z"/><path class="cls-24" d="M267.67,239.17c6.94-15,13.46-30.25,20.42-45.28q3-6.46,6.1-12.87c.84-1.73-1.74-3.25-2.59-1.51-7.25,14.88-13.86,30.07-20.63,45.18q-2.91,6.5-5.89,13c-.81,1.74,1.78,3.27,2.59,1.51Z"/><path class="cls-17" d="M240.8,119c-1.12,21.69,10.26,43.38,28.51,55.07,5.85,3.74,12.46,6.58,19.42,7.23,1.92.18,1.91-2.82,0-3-11-1-21.28-8-28.66-15.79a61.11,61.11,0,0,1-14.52-26.3A56.71,56.71,0,0,1,243.8,119c.11-1.93-2.9-1.92-3,0Z"/><path class="cls-17" d="M294.57,176.13a75.26,75.26,0,0,1-35.8-51.28,81.42,81.42,0,0,1-.14-30.45c2.05-11,6.61-21.19,11.34-31.23,5.46-11.57,11.2-23.19,13.69-35.83.37-1.88-2.52-2.69-2.89-.8-4.53,23-19.72,42.12-24.62,65-4.38,20.42-1,42.61,9.83,60.51a80.23,80.23,0,0,0,27.07,26.68,1.5,1.5,0,0,0,1.52-2.59Z"/><path class="cls-21" d="M345.41,181.47a55.31,55.31,0,0,1-26.22,3.36,62.69,62.69,0,0,1-24.62-8.7,1.5,1.5,0,0,0-1.52,2.59,66.63,66.63,0,0,0,25.71,9.06,57.3,57.3,0,0,0,27.44-3.42c1.79-.68,1-3.58-.79-2.89Z"/><path class="cls-21" d="M257.75,182.46a51.63,51.63,0,0,0,31.37-1c1.79-.66,1-3.56-.8-2.89a48.87,48.87,0,0,1-29.78,1,1.5,1.5,0,0,0-.79,2.89Z"/><path class="cls-29" d="M236,193.56"/><path class="cls-4" d="M228.16,349.78"/><path d="M409.79,317.24a28.27,28.27,0,0,1,3.57,9.08,1.5,1.5,0,0,0,1.84,1,1.53,1.53,0,0,0,1.05-1.84,31.17,31.17,0,0,0-3.87-9.8,1.51,1.51,0,0,0-2.05-.53,1.53,1.53,0,0,0-.54,2.05Z"/><path d="M422.08,311.9a29.6,29.6,0,0,1,2.38,3.74c.35.64.67,1.29,1,2,0,0,.24.56.13.28l.21.53q.21.52.39,1a1.54,1.54,0,0,0,1.85,1.05,1.51,1.51,0,0,0,1-1.84,30.9,30.9,0,0,0-4.37-8.29,1.53,1.53,0,0,0-2.05-.53,1.52,1.52,0,0,0-.54,2Z"/><path d="M409.79,317.24a28.27,28.27,0,0,1,3.57,9.08,1.5,1.5,0,0,0,1.84,1,1.53,1.53,0,0,0,1.05-1.84,31.17,31.17,0,0,0-3.87-9.8,1.51,1.51,0,0,0-2.05-.53,1.53,1.53,0,0,0-.54,2.05Z"/><path d="M422.08,311.9a29.6,29.6,0,0,1,2.38,3.74c.35.64.67,1.29,1,2,0,0,.24.56.13.28l.21.53q.21.52.39,1a1.54,1.54,0,0,0,1.85,1.05,1.51,1.51,0,0,0,1-1.84,30.9,30.9,0,0,0-4.37-8.29,1.53,1.53,0,0,0-2.05-.53,1.52,1.52,0,0,0-.54,2Z"/><path class="cls-20" d="M238.86,265.94a40.46,40.46,0,0,1,4.47-3c.78-.45,1.57-.87,2.38-1.27.4-.2.81-.39,1.22-.57l.61-.27.41-.17a1.6,1.6,0,0,0,1.09-1.92,1.58,1.58,0,0,0-1.93-1.1,42,42,0,0,0-9.83,5.59,1.6,1.6,0,0,0-.56,2.14,1.57,1.57,0,0,0,2.14.56Z"/><path d="M439.26,295.16l.27-.24a1,1,0,0,0,.31-.48,1.06,1.06,0,0,0,.13-.58,1.08,1.08,0,0,0-.13-.58,1.14,1.14,0,0,0-.31-.48l-.3-.23a1.48,1.48,0,0,0-.76-.21l-.4.06a1.57,1.57,0,0,0-.66.38l-.27.24a1.14,1.14,0,0,0-.31.48,1.17,1.17,0,0,0-.13.58,1.15,1.15,0,0,0,.13.58,1,1,0,0,0,.31.48l.3.24a1.57,1.57,0,0,0,.76.2l.4-.05a1.49,1.49,0,0,0,.66-.39Z"/><path class="cls-30" d="M381.54,308.65s5.27-25.88,33.52-29.06c14.25,1.83,26.61,12,26.61,12s-5.08,23.33-23.72,21.58-24.14-5.52-24.14-5.52Z"/><path class="cls-25" d="M378.29,312.09c7.82-5.35,17.34,1.5,25,3.65,8.46,2.37,16.95-.25,24-5.14a59.44,59.44,0,0,0,10.83-9.89c1.26-1.45-.85-3.58-2.12-2.12-5.48,6.29-12.31,12.26-20.57,14.39a22.23,22.23,0,0,1-12.39-.45c-4.37-1.39-8.45-3.64-12.94-4.69s-9.4-1-13.31,1.66c-1.58,1.08-.09,3.68,1.51,2.59Z"/><path d="M378.92,304.88a41.39,41.39,0,0,1,20.4-19.44c4.85-2.13,10.52-3.56,15.82-2.66,4,.69,7.87,2.78,11.4,4.76,4,2.26,8.26,4.83,11.21,8.44,1.22,1.49,3.33-.64,2.12-2.12-2.8-3.43-6.8-6-10.57-8.19s-7.82-4.46-12.05-5.51c-5.63-1.39-11.64-.32-17,1.68a44.2,44.2,0,0,0-13.3,7.88,43.39,43.39,0,0,0-10.64,13.64c-.86,1.73,1.73,3.25,2.59,1.52Z"/><path class="cls-25" d="M379.1,304.67a46,46,0,0,1,19.51-19.91c4.26-2.29,9-4,13.87-3.7,4.6.3,9.06,2.09,13.11,4.2A84.09,84.09,0,0,1,438.75,294c1.49,1.18,3.63-.93,2.12-2.12-7.68-6.07-16.61-12.25-26.54-13.6-10.2-1.39-20.36,4.64-27.59,11.35a46.63,46.63,0,0,0-10.23,13.55c-.85,1.73,1.74,3.25,2.59,1.51Z"/><path class="cls-25" d="M410.79,317.24a28.27,28.27,0,0,1,3.57,9.08,1.5,1.5,0,0,0,1.84,1,1.53,1.53,0,0,0,1.05-1.84,31.17,31.17,0,0,0-3.87-9.8,1.51,1.51,0,0,0-2.05-.53,1.53,1.53,0,0,0-.54,2.05Z"/><path class="cls-25" d="M423.08,311.9a29.6,29.6,0,0,1,2.38,3.74c.35.64.67,1.29,1,2,0,0,.24.56.13.28l.21.53q.21.52.39,1a1.54,1.54,0,0,0,1.85,1.05,1.51,1.51,0,0,0,1-1.84,30.9,30.9,0,0,0-4.37-8.29,1.53,1.53,0,0,0-2.05-.53,1.52,1.52,0,0,0-.54,2Z"/><path class="cls-25" d="M432.5,289.56a13,13,0,0,0,9.34-6.77,1.5,1.5,0,1,0-2.59-1.51,9.88,9.88,0,0,1-.67,1.13l-.18.26s-.22.31-.1.15-.1.12-.12.14l-.24.29a12.46,12.46,0,0,1-.88.9l-.48.41s-.36.27-.09.07l-.25.19a11.79,11.79,0,0,1-1.06.67c-.2.12-.41.22-.61.32l-.29.14c-.06,0-.34.13,0,0a12.42,12.42,0,0,1-2.54.7,1.51,1.51,0,0,0-1,1.85,1.54,1.54,0,0,0,1.84,1Z"/><path class="cls-25" d="M426.67,283.44a25.16,25.16,0,0,0,6.12-7.38,1.5,1.5,0,0,0-2.59-1.52c-.37.67-.76,1.32-1.19,1.95-.21.32-.43.63-.66.94,0,.05-.21.29,0,0l-.15.19-.38.46a24.65,24.65,0,0,1-3.25,3.21,1.51,1.51,0,0,0,0,2.12,1.55,1.55,0,0,0,2.12,0Z"/><path class="cls-30" d="M302.08,309.65s-5.27-25.88-33.52-29.06c-14.25,1.83-26.62,12-26.62,12s5.08,23.33,23.72,21.58,24.15-5.52,24.15-5.52Z"/><path class="cls-25" d="M298.35,309.5c-7.78-5.33-16.92-.34-24.56,2.45a23.31,23.31,0,0,1-12.57,1.37,31.12,31.12,0,0,1-11.36-5,56.19,56.19,0,0,1-10.72-9.77c-1.27-1.46-3.38.67-2.12,2.12,5.54,6.37,12.4,12.23,20.58,14.79a25,25,0,0,0,12.28.71c4.71-.93,9-3.28,13.48-4.78s9.47-2.08,13.48.66c1.59,1.09,3.09-1.51,1.51-2.59Z"/><path class="cls-25" d="M261.74,315.72a31.38,31.38,0,0,0-3.86,9.8,1.5,1.5,0,0,0,2.89.8,28.25,28.25,0,0,1,3.56-9.08,1.5,1.5,0,0,0-2.59-1.52Z"/><path class="cls-25" d="M249.46,310.38a31.22,31.22,0,0,0-4.38,8.29,1.51,1.51,0,0,0,1,1.84,1.54,1.54,0,0,0,1.85-1.05q.18-.52.39-1l.21-.53c-.11.28.11-.24.13-.28.29-.67.61-1.32,1-2a29.6,29.6,0,0,1,2.38-3.74,1.5,1.5,0,0,0-.54-2,1.54,1.54,0,0,0-2,.53Z"/><path d="M298.8,303.36a44.1,44.1,0,0,0-22.17-20.81c-5.17-2.19-10.93-3.57-16.56-2.8-4.5.62-8.76,2.84-12.68,5-4.31,2.4-9,5.2-12.13,9.08-1.21,1.48.9,3.61,2.12,2.12,2.58-3.16,6.19-5.47,9.65-7.53a49.52,49.52,0,0,1,10.79-5.16c5.34-1.61,11.13-.47,16.24,1.44a40.52,40.52,0,0,1,12.27,7.35,41.27,41.27,0,0,1,9.88,12.8c.86,1.73,3.45.21,2.59-1.52Z"/><path class="cls-25" d="M298.62,303.16a48.75,48.75,0,0,0-21.11-21.27c-4.63-2.4-9.76-4.2-15-3.82a37.36,37.36,0,0,0-14.09,4.41,86.76,86.76,0,0,0-14.12,9.38c-1.51,1.19.62,3.3,2.12,2.12,7.11-5.62,15.48-11.4,24.65-12.75,4.86-.72,9.56.61,13.92,2.73a46.77,46.77,0,0,1,11.62,8A44.5,44.5,0,0,1,296,304.67c.85,1.74,3.44.22,2.59-1.51Z"/><path d="M237,293l-.27-.24a1.14,1.14,0,0,0-.48-.31,1.17,1.17,0,0,0-.58-.13,1.15,1.15,0,0,0-.58.13,1,1,0,0,0-.48.31l-.24.3a1.57,1.57,0,0,0-.2.76l.05.4a1.44,1.44,0,0,0,.39.66l.27.24a1,1,0,0,0,.48.31,1.06,1.06,0,0,0,.58.13,1,1,0,0,0,.57-.13,1.11,1.11,0,0,0,.49-.31l.23-.3a1.48,1.48,0,0,0,.21-.76l-.06-.4A1.57,1.57,0,0,0,237,293Z"/><path class="cls-25" d="M243.43,286.67a12.25,12.25,0,0,1-2.54-.7c.13,0,.15.07,0,0l-.34-.16c-.19-.09-.37-.19-.55-.29a11.68,11.68,0,0,1-1.12-.7l-.25-.19c.17.13.06.05,0,0l-.47-.41a11.78,11.78,0,0,1-.93-.94l-.4-.48c.19.24,0,0,0,0l-.18-.25a11.94,11.94,0,0,1-.7-1.19,1.52,1.52,0,0,0-2.06-.54,1.54,1.54,0,0,0-.54,2.05,13,13,0,0,0,9.35,6.77,1.5,1.5,0,0,0,.8-2.89Z"/><path class="cls-25" d="M250.57,281.32a24,24,0,0,1-3.24-3.21l-.35-.42-.18-.23c.07.1.11.14,0,0-.22-.3-.45-.61-.66-.93a21.34,21.34,0,0,1-1.22-2,1.5,1.5,0,0,0-2.59,1.52,25.28,25.28,0,0,0,6.11,7.38,1.54,1.54,0,0,0,2.12,0,1.51,1.51,0,0,0,0-2.12Z"/><circle class="cls-13" cx="414.31" cy="297.42" r="13"/><circle class="cls-31" cx="410.06" cy="298.17" r="12.25"/><circle class="cls-25" cx="410.06" cy="298.17" r="7.44"/><circle class="cls-13" cx="270.31" cy="298.42" r="13"/><circle class="cls-31" cx="266.81" cy="298.42" r="12.49"/><circle class="cls-25" cx="266.81" cy="298.58" r="4.75"/><path class="cls-24" d="M233,309.94q-5.83,14.31-11.18,28.82c-.67,1.81,2.23,2.59,2.89.79Q230,325,235.84,310.74c.73-1.79-2.17-2.57-2.89-.8Z"/><path class="cls-23" d="M341.1,280.67c10.9-23.45,23-46.33,35.53-68.94,3.61-6.52,6.83-13.25,10.56-19.71a1.5,1.5,0,0,0-2.59-1.51c-3.29,5.69-6.17,11.59-9.29,17.38s-6.24,11.3-9.31,17q-9.27,17.14-18,34.57-4.87,9.81-9.5,19.73c-.81,1.74,1.78,3.26,2.59,1.51Z"/><path class="cls-24" d="M279.6,338.51c-6.42,12.95-12.58,26-18.16,39.38S251,404.6,246.72,418.28c-2.65,8.47-5.05,17-7.27,25.59a1.5,1.5,0,0,0,2.89.79c3.8-14.66,8.14-29.17,13.24-43.43,4.72-13.17,10.07-26.09,15.9-38.81,3.44-7.53,7-15,10.71-22.4.86-1.72-1.73-3.24-2.59-1.51Z"/><path class="cls-23" d="M340.56,282.21c6-4.43,11.71-9.39,17.48-14.14q12.09-9.93,24.15-19.88l4.75-3.88,1.72-1.38c.2-.17.41-.33.62-.49s.54-.43.28-.23c1.51-1.16,0-3.76-1.51-2.59-5.95,4.56-11.65,9.46-17.43,14.22-8.05,6.63-16.08,13.28-24.16,19.86-1.59,1.29-3.17,2.58-4.77,3.85L340,278.92l-.33.26c-.2.15.23-.18-.06.05l-.53.39c-1.54,1.13-.05,3.74,1.51,2.59Z"/><path class="cls-23" d="M241.87,445a9.3,9.3,0,0,0,1.85-2.79,18.62,18.62,0,0,1,2-3.64q2.88-4,5.77-8,5.64-7.8,11.33-15.55,10.81-14.73,21.82-29.33,21.52-28.56,43.51-56.77l25.29-32.59c1.17-1.51-.94-3.64-2.12-2.12-14.84,19.14-29.73,38.24-44.49,57.44s-29.23,38.29-43.53,57.68q-6.22,8.46-12.4,17-3.16,4.37-6.32,8.75a26.73,26.73,0,0,0-3,4.38,11.21,11.21,0,0,1-1.91,3.45c-1.34,1.39.78,3.52,2.12,2.12Z"/><path class="cls-20" d="M290,497.89c-8.22-11.18-17.84-21.18-27.39-31.21-4.87-5.11-9.71-10.24-14.36-15.55-4.29-4.91-8.62-9.9-11.77-15.64a38.46,38.46,0,0,1-4.66-18.57,1.5,1.5,0,0,0-3,0,41.59,41.59,0,0,0,3.68,17.34c2.62,5.7,6.54,10.66,10.56,15.42,9.25,10.95,19.47,21,29.15,31.56a214.39,214.39,0,0,1,15.2,18.17c1.13,1.54,3.74,0,2.59-1.52Z"/><path class="cls-32" d="M460,351.78s4,17.46,18.15,7.55c.18,15.09-3.24,61,15,86.52-13.79.57-17.09-2.29-17.09-2.29a122.92,122.92,0,0,1-30.2,62.36c-.5-25.5-.61-65.26-.61-65.26s8.32-8.41,7.21-31.33S460,351.78,460,351.78Z"/><path class="cls-21" d="M474.36,357.52c-2.69,9.51-3.31,19.61-3.13,29.45A158.33,158.33,0,0,0,475,418.78a102.38,102.38,0,0,0,4.5,15c.7,1.77,3.6,1,2.89-.8a119,119,0,0,1-6.81-28.1,147.7,147.7,0,0,1-.95-31.24,81.43,81.43,0,0,1,2.63-15.36,1.5,1.5,0,0,0-2.89-.8Z"/><path class="cls-21" d="M470.51,443.56c.35,8.53-3.17,17.05-6.8,24.59a200.75,200.75,0,0,1-15,25.36c-2.66,3.93-5.42,7.81-8.22,11.65-1.14,1.56,1.46,3.06,2.59,1.51,5.41-7.41,10.64-15,15.41-22.81,5.11-8.41,9.89-17.25,12.84-26.68a40.25,40.25,0,0,0,2.16-13.62c-.07-1.93-3.07-1.94-3,0Z"/><path class="cls-21" d="M471.41,445.36a45.17,45.17,0,0,0,9.25,2.21c3.07.43,6.55.84,9.54-.21,1.81-.63,1-3.53-.79-2.89-2.63.92-5.76.54-8.46.13a44.7,44.7,0,0,1-8.75-2.13c-1.81-.66-2.6,2.24-.79,2.89Z"/><path class="cls-21" d="M478,429.45a59.09,59.09,0,0,0,10,17.47,1.52,1.52,0,0,0,2.12,0,1.54,1.54,0,0,0,0-2.13,54.61,54.61,0,0,1-9.26-16.13,1.54,1.54,0,0,0-1.85-1.05,1.52,1.52,0,0,0-1.05,1.84Z"/><path class="cls-26" d="M459.62,363.1c-.19,12.69-.12,25.49,2.28,38A81.41,81.41,0,0,0,474,429.79,70.08,70.08,0,0,0,484.75,443c1.41,1.31,3.53-.8,2.12-2.12-7.31-6.82-12.83-15.64-17-24.68-4.62-10.13-6.38-21-7-32-.41-7-.38-14.05-.27-21.07a1.5,1.5,0,0,0-3,0Z"/><path class="cls-26" d="M448.31,373.92c1.86,17.73,5.29,35.3,6.38,53.11a84.91,84.91,0,0,1-1.46,19.68A202.32,202.32,0,0,1,448,468.86a170.29,170.29,0,0,1-7.51,21.3c-.77,1.75,1.81,3.28,2.59,1.51a191.86,191.86,0,0,0,12.5-41.3A101.55,101.55,0,0,0,457.82,430c-.13-8.56-1.4-17.18-2.53-25.65-1.35-10.13-2.91-20.23-4-30.39-.2-1.9-3.21-1.92-3,0Z"/><path class="cls-6" d="M460.37,349.32s-9.85,36.93-8,61-7.1,34.09-7.1,34.09l-37,41c7.65-8.76,22.41-50,26.2-103,2.8-13,13.79-23.82,13.79-23.82l13-15.6Z"/><path class="cls-33" d="M460.31,350.42s3.65,18.82,17.82,8.91c.18,15.09-3.24,61,15,86.52-13.79.57-17.09-2.29-17.09-2.29a122.92,122.92,0,0,1-30.2,62.36c-.5-25.5-.61-65.26-.61-65.26s7.32-8.41,6.21-31.33S460.31,350.42,460.31,350.42Z"/><path class="cls-21" d="M470.51,443.56c.35,8.53-3.17,17.05-6.8,24.59a200.75,200.75,0,0,1-15,25.36c-2.66,3.93-5.42,7.81-8.22,11.65-1.14,1.56,1.46,3.06,2.59,1.51,5.41-7.41,10.64-15,15.41-22.81,5.11-8.41,9.89-17.25,12.84-26.68a40.25,40.25,0,0,0,2.16-13.62c-.07-1.93-3.07-1.94-3,0Z"/><path class="cls-21" d="M471.41,445.36a45.17,45.17,0,0,0,9.25,2.21c3.07.43,6.55.84,9.54-.21,1.81-.63,1-3.53-.79-2.89-2.63.92-5.76.54-8.46.13a44.7,44.7,0,0,1-8.75-2.13c-1.81-.66-2.6,2.24-.79,2.89Z"/><path class="cls-26" d="M459.62,363.1c-.19,12.69-.12,25.49,2.28,38A81.41,81.41,0,0,0,474,429.79,70.08,70.08,0,0,0,484.75,443c1.41,1.31,3.53-.8,2.12-2.12-7.31-6.82-12.83-15.64-17-24.68-4.62-10.13-6.38-21-7-32-.41-7-.38-14.05-.27-21.07a1.5,1.5,0,0,0-3,0Z"/><path class="cls-26" d="M448.31,373.92c1.86,17.73,5.29,35.3,6.38,53.11a84.91,84.91,0,0,1-1.46,19.68A202.32,202.32,0,0,1,448,468.86a170.29,170.29,0,0,1-7.51,21.3c-.77,1.75,1.81,3.28,2.59,1.51a191.86,191.86,0,0,0,12.5-41.3A101.55,101.55,0,0,0,457.82,430c-.13-8.56-1.4-17.18-2.53-25.65-1.35-10.13-2.91-20.23-4-30.39-.2-1.9-3.21-1.92-3,0Z"/><path class="cls-21" d="M474.36,357.52c-2.69,9.51-3.31,19.61-3.13,29.45A158.33,158.33,0,0,0,475,418.78a102.38,102.38,0,0,0,4.5,15c.7,1.77,3.6,1,2.89-.8a119,119,0,0,1-6.81-28.1,147.7,147.7,0,0,1-.95-31.24,81.43,81.43,0,0,1,2.63-15.36,1.5,1.5,0,0,0-2.89-.8Z"/><path class="cls-21" d="M478,429.45a59.09,59.09,0,0,0,10,17.47,1.52,1.52,0,0,0,2.12,0,1.54,1.54,0,0,0,0-2.13,54.61,54.61,0,0,1-9.26-16.13,1.54,1.54,0,0,0-1.85-1.05,1.52,1.52,0,0,0-1.05,1.84Z"/><path class="cls-20" d="M456.9,339.85a193.15,193.15,0,0,0-8.13,32.39,169.78,169.78,0,0,0-1.85,27c0,5.88.21,11.76.39,17.65.05,1.92,3.05,1.93,3,0-.29-9.72-.65-19.46-.15-29.18a160.66,160.66,0,0,1,4.12-28,195.12,195.12,0,0,1,5.52-19.08c.62-1.83-2.28-2.61-2.9-.79Z"/><path class="cls-19" d="M440.31,439.92c-1.16,18.25-1.22,36.58-.78,54.86.47,19.38,1.54,38.75,3.35,58.05.92,9.85,2.05,19.69,3.48,29.49.28,1.9,3.17,1.09,2.89-.8-2.63-18-4.22-36.09-5.33-54.21-1.19-19.35-1.77-38.74-1.6-58.12.09-9.77.37-19.53,1-29.27.12-1.93-2.88-1.92-3,0Z"/><path class="cls-20" d="M383.1,512.67c7.89-13.9,18.46-25.86,29.39-37.41,5.49-5.8,11.06-11.54,16.43-17.45s10.73-11.74,14.91-18.42a42.23,42.23,0,0,0,6.48-22.47,1.5,1.5,0,0,0-3,0,38.72,38.72,0,0,1-5.3,19.69c-3.88,6.63-9.2,12.42-14.33,18.11-10.56,11.7-22,22.65-32,34.81a150.19,150.19,0,0,0-15.15,21.63,1.5,1.5,0,0,0,2.59,1.51Z"/><path class="cls-20" d="M454.48,351.78c.4,3.43,1.52,7,4.08,9.4a10.69,10.69,0,0,0,10,2.42c7.7-1.8,13-9,16.62-15.54a121.5,121.5,0,0,0,6.29-13.49c.72-1.79-2.18-2.57-2.89-.8a114.91,114.91,0,0,1-6.19,13.14A37.17,37.17,0,0,1,474.67,357c-2.94,2.57-7.21,4.87-11.23,3.69-3.8-1.11-5.53-5.27-6-8.89-.22-1.89-3.23-1.92-3,0Z"/><path class="cls-21" d="M288.73,181.33a23.34,23.34,0,0,0,8.72-.86,1.5,1.5,0,0,0-.8-2.89c-.64.2-1.3.36-2,.5-.35.07-.71.13-1.06.18.26,0-.22,0-.22,0l-.54.06a24.88,24.88,0,0,1-4.14,0,1.51,1.51,0,0,0-1.5,1.5,1.54,1.54,0,0,0,1.5,1.5Z"/><path class="cls-23" d="M227.48,347.47q26.76-5.82,53-13.65c1.85-.55,1.06-3.44-.8-2.89q-26.22,7.83-53,13.65c-1.89.41-1.09,3.3.79,2.89Z"/><path class="cls-20" d="M599.42,657.7c17,1.75,34.15,5,50,11.76,14,5.93,26.78,14.64,36.6,26.27a72.21,72.21,0,0,1,12.47,21c.68,1.79,3.58,1,2.89-.8-5.37-14.29-15.21-26.38-27.24-35.66-13.25-10.21-29-16.72-45.12-20.7a216.13,216.13,0,0,0-29.57-4.92c-1.92-.2-1.91,2.8,0,3Z"/><path class="cls-21" d="M212.51,198.16c-4.79,8.55-6.23,18.55-6.59,28.21-.41,10.92.71,21.79,1.31,32.68a124.16,124.16,0,0,1-.26,20c-.2,1.92,2.8,1.91,3,0,2.31-21.44-3.65-43,.1-64.43a47.22,47.22,0,0,1,5-15,1.5,1.5,0,0,0-2.59-1.51Z"/></svg>