<svg id="ls" xmlns="http://www.w3.org/2000/svg" xmlns:xlink="http://www.w3.org/1999/xlink" viewBox="0 0 560 550"><defs><style>.cls-1{fill:url(#linear-gradient);}.cls-2{fill:#fcf3eb;}.cls-3,.cls-4{fill:none;stroke:#6d0012;stroke-miterlimit:10;}.cls-3{stroke-width:4px;}.cls-4{stroke-width:4.83px;}</style><linearGradient id="linear-gradient" x1="244.28" y1="1253.3" x2="290.57" y2="208.21" gradientUnits="userSpaceOnUse"><stop offset="0" stop-color="#fcf3eb"/><stop offset="0.11" stop-color="#faeae2"/><stop offset="0.28" stop-color="#f5d1cb"/><stop offset="0.5" stop-color="#eea9a4"/><stop offset="0.76" stop-color="#e37270"/><stop offset="1" stop-color="#d83939"/></linearGradient></defs><path class="cls-1" d="M287.5,5C438,5,560,127,560,277.5S438,550,287.5,550,15,428,15,277.5,137,5,287.5,5"/><path class="cls-2" d="M359.09,178.57c25.67-2.06,51,8.32,67.11,28.38l.34.42a329.11,329.11,0,0,1,34.63,53.69c30.71,59.44,42.67,77.52,58.42,92.53-37.71-4.44-22.13-8.13-68.82-44.25-35-27.08-56.16-36.46-73.61-39.28a79.73,79.73,0,0,0-23.29-.05c-61,8.25-79.58-12.37-92.07-21.74-6.09-4.57-14.56-8.4-25.05-10.19a122.14,122.14,0,0,0-58.94,4.82c-112.14,37.21-119.2,15.32-119.2,15.32,21.8-2,75.55-38.94,123.07-74a200.19,200.19,0,0,1,38.23-22.29c30.5-13.39,54.94-8.78,54.94-8.78s17.78,2.1,50.29,30.71A212.24,212.24,0,0,1,359.09,178.57Z"/><path class="cls-2" d="M86.14,283.73s75.17,126.8,191.45,145.47,205.2-68.73,205.2-68.73-71.88-41.41-106.86-47.11c-23.66-3.86-50.85-5-66-5.3a63,63,0,0,1-22.78-4.76c-20.51-8.47-36.92-18-72.82-27.17C183.18,268.15,86.14,283.73,86.14,283.73Z"/><path class="cls-3" d="M274.5,2C425,2,547,124,547,274.5S425,547,274.5,547,2,425,2,274.5,124,2,274.5,2"/><path class="cls-4" d="M342.09,172.57c25.67-2.06,51,8.32,67.11,28.38l.34.42a329.11,329.11,0,0,1,34.63,53.69c30.71,59.44,42.67,77.52,58.42,92.53-37.71-4.44-22.13-8.13-68.82-44.25-35-27.08-56.16-36.46-73.61-39.28a79.73,79.73,0,0,0-23.29-.05c-61,8.25-79.58-12.37-92.07-21.74-6.09-4.57-14.56-8.4-25.05-10.19a122.14,122.14,0,0,0-58.94,4.82c-112.14,37.21-119.2,15.32-119.2,15.32,21.8-2,75.55-38.94,123.07-74a200.19,200.19,0,0,1,38.23-22.29c30.5-13.39,54.94-8.78,54.94-8.78s17.78,2.1,50.29,30.71A212.24,212.24,0,0,1,342.09,172.57Z"/><path class="cls-4" d="M69.14,277.73s75.17,126.8,191.45,145.47,205.2-68.73,205.2-68.73-71.88-41.41-106.86-47.11c-23.66-3.86-50.85-5-66-5.3a63,63,0,0,1-22.78-4.76c-20.51-8.47-36.92-18-72.82-27.17C166.18,262.15,69.14,277.73,69.14,277.73Z"/></svg>