<svg id="md" xmlns="http://www.w3.org/2000/svg" xmlns:xlink="http://www.w3.org/1999/xlink" viewBox="0 0 563 554.5"><defs><style>.cls-1{fill:#3b9ab7;}.cls-2{fill:url(#linear-gradient);}.cls-3{fill:#fcf3eb;}.cls-4{fill:none;stroke:#040d4c;stroke-miterlimit:10;stroke-width:4px;}</style><linearGradient id="linear-gradient" x1="261.37" y1="928.5" x2="307.65" y2="-116.59" gradientUnits="userSpaceOnUse"><stop offset="0" stop-color="#fcf3eb"/><stop offset="0.09" stop-color="#f5f0e9" stop-opacity="0.96"/><stop offset="0.23" stop-color="#e2e7e4" stop-opacity="0.87"/><stop offset="0.4" stop-color="#c3d9dc" stop-opacity="0.71"/><stop offset="0.61" stop-color="#99c5d0" stop-opacity="0.49"/><stop offset="0.84" stop-color="#63acc2" stop-opacity="0.21"/><stop offset="1" stop-color="#3b9ab7" stop-opacity="0"/></linearGradient></defs><circle class="cls-1" cx="290.5" cy="278.5" r="272.5"/><circle class="cls-2" cx="290" cy="282" r="272.5"/><path class="cls-3" d="M398,432.75c-121.78,0-220.5-98.72-220.5-220.5a219.76,219.76,0,0,1,62.72-154C148,84.63,80.5,169.55,80.5,270.25c0,121.78,98.72,220.5,220.5,220.5a219.8,219.8,0,0,0,157.78-66.49A220.46,220.46,0,0,1,398,432.75Z" transform="translate(1.5 2.25)"/><polygon class="cls-3" points="377.35 145.08 380.01 156.23 425.17 145.44 393.67 246.8 396.33 257.94 481.35 237.62 478.68 226.47 429.3 238.28 461.2 135.71 458.79 125.62 377.35 145.08"/><polygon class="cls-3" points="304.74 206.96 306.81 215.63 341.94 207.23 317.43 286.08 319.5 294.75 385.64 278.94 383.57 270.27 345.15 279.46 369.97 199.66 368.09 191.81 304.74 206.96"/><polygon class="cls-3" points="242.37 263.44 243.98 270.17 271.24 263.65 252.22 324.85 253.83 331.57 305.16 319.31 303.55 312.58 273.74 319.7 292.99 257.78 291.54 251.69 242.37 263.44"/><circle class="cls-4" cx="274.5" cy="274.5" r="272.5"/><path class="cls-4" d="M381,430.75c-121.78,0-220.5-98.72-220.5-220.5a219.76,219.76,0,0,1,62.72-154C131,82.63,63.5,167.55,63.5,268.25c0,121.78,98.72,220.5,220.5,220.5a219.8,219.8,0,0,0,157.78-66.49A220.46,220.46,0,0,1,381,430.75Z" transform="translate(1.5 2.25)"/><polygon class="cls-4" points="367.35 141.08 370.01 152.23 415.17 141.44 383.67 242.8 386.33 253.94 471.35 233.62 468.68 222.47 419.3 234.28 451.2 131.71 448.79 121.62 367.35 141.08"/><polygon class="cls-4" points="294.74 202.96 296.81 211.63 331.94 203.23 307.43 282.08 309.5 290.75 375.64 274.94 373.57 266.27 335.15 275.46 359.97 195.66 358.09 187.81 294.74 202.96"/><polygon class="cls-4" points="232.37 259.44 233.98 266.17 261.24 259.65 242.22 320.85 243.83 327.57 295.16 315.31 293.55 308.58 263.74 315.7 282.99 253.78 281.54 247.69 232.37 259.44"/></svg>