<?xml version="1.0" encoding="utf-8"?>
<!-- Generator: Adobe Illustrator 26.0.1, SVG Export Plug-In . SVG Version: 6.00 Build 0)  -->
<svg version="1.1" id="md" xmlns="http://www.w3.org/2000/svg" xmlns:xlink="http://www.w3.org/1999/xlink" x="0px" y="0px"
	 viewBox="0 0 560 550" enable-background="new 0 0 560 550" xml:space="preserve">
<linearGradient id="SVGID_1_" gradientUnits="userSpaceOnUse" x1="244.2826" y1="1253.2964" x2="290.569" y2="208.2061">
	<stop  offset="0" style="stop-color:#FCF3EB"/>
	<stop  offset="0.1071" style="stop-color:#FAEAE2"/>
	<stop  offset="0.2827" style="stop-color:#F5D1CB"/>
	<stop  offset="0.5048" style="stop-color:#EEA9A4"/>
	<stop  offset="0.7621" style="stop-color:#E37270"/>
	<stop  offset="1" style="stop-color:#D83939"/>
</linearGradient>
<circle fill="url(#SVGID_1_)" cx="287.5" cy="277.5" r="272.5"/>
<polygon fill="#FCF3EB" points="229.42,212.56 307.12,81 334.78,231.91 482.33,264.42 350.38,335.16 361.66,489.76 251.67,382.9 
	109.46,443.43 179.79,306.29 76.01,188.61 "/>
<polygon fill="#FCF3EB" points="445.2,382.07 443.14,350.54 465.46,373.1 494.45,361.46 480.15,388.92 500.1,414.01 468.85,408.58 
	451.61,435.49 447.65,403.87 416.2,395.86 "/>
<polygon fill="#FCF3EB" points="144.79,99.24 157.93,79.47 160.97,103.11 183.6,109.37 162.54,119.25 163.02,143.33 146.84,125.85 
	124.27,134.07 136.32,113.37 121.18,94.26 "/>
<polygon fill="#FCF3EB" points="232.4,69.74 224.66,56.84 239.02,61.53 248.76,50.28 248.69,65.02 262.61,71.3 248.2,75.81 
	246.76,90.97 238.19,78.44 223.13,81.9 "/>
<g>
	<polygon fill="none" stroke="#6D0012" stroke-width="4" stroke-miterlimit="10" points="216.42,209.56 294.12,78 321.78,228.91 
		469.33,261.42 337.38,332.16 348.66,486.76 238.67,379.9 96.46,440.43 166.79,303.29 63.01,185.61 	"/>
	<polygon fill="none" stroke="#6D0012" stroke-width="3" stroke-miterlimit="10" points="432.2,382.07 430.14,350.54 452.46,373.1 
		481.45,361.46 467.15,388.92 487.1,414.01 455.85,408.58 438.61,435.49 434.65,403.87 403.2,395.86 	"/>
	<polygon fill="none" stroke="#6D0012" stroke-width="3" stroke-miterlimit="10" points="134.79,107.24 147.93,87.47 150.97,111.11 
		173.6,117.37 152.54,127.25 153.02,151.33 136.84,133.85 114.27,142.07 126.32,121.37 111.18,102.26 	"/>
	<circle fill="none" stroke="#6D0012" stroke-width="4" stroke-miterlimit="10" cx="274.5" cy="274.5" r="272.5"/>
</g>
<polygon fill="none" stroke="#6D0012" stroke-width="3" stroke-miterlimit="10" points="222.4,77.74 214.66,64.84 229.02,69.53 
	238.76,58.28 238.69,73.02 252.61,79.3 238.2,83.81 236.76,98.97 228.19,86.44 213.13,89.9 "/>
</svg>
