<svg id="white_stripes" xmlns="http://www.w3.org/2000/svg" xmlns:xlink="http://www.w3.org/1999/xlink" viewBox="0 0 977.15 967.78"><defs><style>.cls-1{fill:#fcf3eb;}.cls-2,.cls-5{fill:none;}.cls-3{fill:#3b9ab7;}.cls-4{fill:#d83939;}.cls-5{stroke:#040d4c;stroke-miterlimit:10;stroke-width:4px;}.cls-6{fill:url(#radial-gradient);}</style><radialGradient id="radial-gradient" cx="479.57" cy="480.22" r="479.57" gradientUnits="userSpaceOnUse"><stop offset="0" stop-color="#fcf3eb" stop-opacity="0.55"/><stop offset="0.01" stop-color="#fcf3eb" stop-opacity="0.53"/><stop offset="0.17" stop-color="#fcf3eb" stop-opacity="0.37"/><stop offset="0.32" stop-color="#fcf3eb" stop-opacity="0.24"/><stop offset="0.48" stop-color="#fcf3eb" stop-opacity="0.13"/><stop offset="0.65" stop-color="#fcf3eb" stop-opacity="0.06"/><stop offset="0.82" stop-color="#fcf3eb" stop-opacity="0.01"/><stop offset="1" stop-color="#fcf3eb" stop-opacity="0"/></radialGradient></defs><circle class="cls-1" cx="479.57" cy="480.22" r="479.55"/><path class="cls-2" d="M480.29,477.4l211.44,34.11,3,43Z"/><polygon class="cls-3" points="480.29 477.4 694.7 554.56 691.73 511.51 480.29 477.4"/><path class="cls-3" d="M654.38,451.62l255.91,91.25,48.4-35.51q.84-13.77.89-27.42l-315.1-52.35Z"/><path class="cls-4" d="M482.42,479.32,790.5,641.13l-23.28-75.91L937.66,622a481.14,481.14,0,0,0,18.09-83.28q2-15.59,2.93-31.06l-307.87-65L683,528.49Z"/><path class="cls-2" d="M479.56,481.66,607.41,653.49l-27.87,32.93Z"/><polygon class="cls-3" points="479.56 481.66 579.54 686.42 607.41 653.49 479.56 481.66"/><path class="cls-3" d="M622.37,584.5,742.28,828.3l59.46,8.27q10.2-9.29,19.75-19L632,560.37Z"/><path class="cls-4" d="M479.75,484.51,587.9,815.28l36.21-70.67,82.66,159.51a482.16,482.16,0,0,0,71-47.12q12.29-9.81,23.75-20.24L626.06,575.58l-36.72,84Z"/><path class="cls-2" d="M482,481.48,448.33,693l-43,3.06Z"/><polygon class="cls-3" points="482.02 481.48 405.29 696.05 448.33 692.99 482.02 481.48"/><path class="cls-3" d="M508.15,655.52,417.41,911.61,453,959.94c9.18.55,18.8.31,27.9.34l51.24-314.71Z"/><path class="cls-4" d="M480.11,483.61,318.91,792l75.87-23.43L338.34,939.14a482.62,482.62,0,0,0,83.33,17.93q15.58,1.93,31.06,2.86l64.39-308-85.78,32.4Z"/><path class="cls-2" d="M482.93,483.9,308.45,608.12l-32.34-28.56Z"/><polygon class="cls-3" points="482.93 483.9 276.11 579.56 308.45 608.12 482.93 483.9"/><path class="cls-3" d="M377.1,624.53,130.85,739.29l-9.52,59.28Q130.41,809,140,818.72L401,634.68Z"/><path class="cls-4" d="M480.07,484l-333,101.19L217,622.91,55.06,703.09c12.83,24.88,28.75,48.09,46.35,71.1q9.54,12.48,19.73,24.16L386,628.41l-83.23-38.48Z"/><path class="cls-2" d="M479.53,481.25,267.45,451.39l-3.84-43Z"/><polygon class="cls-3" points="479.53 481.25 263.61 408.41 267.44 451.39 479.53 481.25"/><path class="cls-3" d="M306,510.52,48.3,424.42.62,460.9Q0,474.68.28,488.33l316.09,46Z"/><path class="cls-4" d="M477.36,479.38,166.09,323.78l24.8,75.43L19.34,345.87A482.91,482.91,0,0,0,2.93,429.5Q1.27,445.13.63,460.61l309.11,58.82-33.95-85.19Z"/><path class="cls-2" d="M477.47,482.08,350.79,309.39l28.09-32.75Z"/><polygon class="cls-3" points="477.48 482.08 378.88 276.64 350.79 309.39 477.48 482.08"/><path class="cls-3" d="M335.36,378.27,217.1,133.67,157.69,125q-10.26,9.23-19.88,18.91L325.55,402.34Z"/><path class="cls-4" d="M477.3,479.22,371.39,147.74,334.7,218.16,253.12,58.09a482.87,482.87,0,0,0-71.33,46.64q-12.34,9.72-23.88,20.08l173.7,262.36,37.28-83.77Z"/><path class="cls-2" d="M477.35,479.28,512.43,268l43.06-2.78Z"/><polygon class="cls-3" points="477.35 479.28 555.49 265.22 512.43 268 477.35 479.28"/><path class="cls-3" d="M452.37,305.07,544.8,49.59,509.51,1Q495.74.1,482.1,0L428.29,314.86Z"/><path class="cls-4" d="M479.27,477.16,642.51,169.82l-76,22.94L624.05,22.57A483.14,483.14,0,0,0,540.85,4.1Q525.27,2.06,509.8,1L443.37,308.6l86-31.83Z"/><path class="cls-2" d="M478.61,479.76l172-127.64L683.5,380Z"/><polygon class="cls-3" points="478.61 479.76 683.5 380.02 650.59 352.12 478.61 479.76"/><path class="cls-3" d="M581.63,337.07,825.56,217.45,833.9,158q-9.27-10.22-19-19.78L557.51,327.4Z"/><path class="cls-4" d="M481.47,479.58,812.36,371.82l-70.63-36.3,159.61-82.47a482.64,482.64,0,0,0-47-71.07q-9.78-12.3-20.21-23.77L572.7,333.37l84,36.82Z"/><circle class="cls-5" cx="495.58" cy="486.21" r="479.55"/><polyline class="cls-5" points="174.3 130.2 349.09 389.83 384.9 309.39 493.31 485.22 545.38 282.76 459.38 314.59 522.44 7.42"/><polyline class="cls-5" points="850.93 164.2 588.71 339.36 672.69 376.18 495.58 486.21 699.04 534.48 666.81 448.63 975.59 513.17"/><polyline class="cls-5" points="817.99 843.45 642.07 581.57 605.34 665.59 498.93 494.55 447.34 690.32 533.13 657.92 468.99 965.45"/><polyline class="cls-5" points="488.87 494.55 318.72 595.92 401.96 634.4 136.99 804.45"/><polyline class="cls-5" points="488.87 483.39 291.8 440.23 325.74 525.42 14.99 466.45"/><circle class="cls-6" cx="479.57" cy="480.22" r="479.55"/></svg>