<svg id="world" xmlns="http://www.w3.org/2000/svg" xmlns:xlink="http://www.w3.org/1999/xlink" viewBox="0 0 563 554.5"><defs><style>.cls-1{fill:#3b9ab7;}.cls-2{fill:url(#linear-gradient);}.cls-3{fill:#fcf3eb;}.cls-4,.cls-5,.cls-6{fill:none;stroke:#040d4c;stroke-miterlimit:10;}.cls-4{stroke-width:4px;}.cls-5{stroke-width:4px;}.cls-6{stroke-width:4px;}</style><linearGradient id="linear-gradient" x1="261.37" y1="928.5" x2="307.65" y2="-116.59" gradientUnits="userSpaceOnUse"><stop offset="0" stop-color="#fcf3eb"/><stop offset="0.09" stop-color="#f5f0e9" stop-opacity="0.96"/><stop offset="0.23" stop-color="#e2e7e4" stop-opacity="0.87"/><stop offset="0.4" stop-color="#c3d9dc" stop-opacity="0.71"/><stop offset="0.61" stop-color="#99c5d0" stop-opacity="0.49"/><stop offset="0.84" stop-color="#63acc2" stop-opacity="0.21"/><stop offset="1" stop-color="#3b9ab7" stop-opacity="0"/></linearGradient></defs><circle class="cls-1" cx="290.5" cy="278.5" r="272.5"/><circle class="cls-2" cx="290" cy="282" r="272.5"/><path class="cls-3" d="M117.68,219.43c52.5-15.25,27-61.47,27-61.47a184.82,184.82,0,0,0-33.3,167.93C130.31,257.06,100.7,236.67,117.68,219.43Z" transform="translate(1.5 2.25)"/><path class="cls-3" d="M456.77,349.21c-133.49,125.3-134.07,59.28-98.89-18.68a29.51,29.51,0,0,0-2.29-28.32c-120.42-183.39,67.66-157.42,67.66-157.42a183.37,183.37,0,0,0-65.5-45C326,164.45,315.6,114.5,302,106.82s-1.13,54.36-70,43.76c-34.41-5.3-46.24,9.09-49.47,24.8-3.28,16,3.11,32.41,15.84,42.57,25.28,20.19,70.2,67.77-4.84,107.42a517.93,517.93,0,0,0-46.8,28.24l-18.25,12.27A184.05,184.05,0,0,0,182.58,425c0-.08,25.33-62.25,137.91,30.5A184.56,184.56,0,0,0,456.77,349.21Z" transform="translate(1.5 2.25)"/><path class="cls-3" d="M158.61,490.43" transform="translate(1.5 2.25)"/><circle class="cls-4" cx="274.5" cy="274.5" r="272.5"/><path class="cls-5" d="M100.58,219c52.49-15.24,27-61.46,27-61.46A184.78,184.78,0,0,0,94.27,325.42C113.2,256.6,83.6,236.21,100.58,219Z" transform="translate(1.5 2.25)"/><path class="cls-5" d="M439.66,348.75C306.17,474.05,305.6,408,340.78,330.06a29.51,29.51,0,0,0-2.3-28.32c-120.42-183.39,67.67-157.42,67.67-157.42a183.56,183.56,0,0,0-65.5-45c-31.76,64.69-42.15,14.74-55.76,7s-1.13,54.37-70,43.77c-34.42-5.3-46.25,9.09-49.48,24.8-3.27,16,3.12,32.41,15.84,42.57,25.28,20.19,70.2,67.77-4.84,107.42a517.77,517.77,0,0,0-46.79,28.24L111.4,365.42a184.2,184.2,0,0,0,54.08,59.1c0-.08,25.33-62.25,137.91,30.49A184.53,184.53,0,0,0,439.66,348.75Z" transform="translate(1.5 2.25)"/><path class="cls-5" d="M141.51,490" transform="translate(1.5 2.25)"/><circle class="cls-6" cx="273.55" cy="273.97" r="185.66"/></svg>